<?xml version="1.0" encoding="utf-8"?>
<!-- Generator: Adobe Illustrator 26.0.1, SVG Export Plug-In . SVG Version: 6.00 Build 0)  -->
<svg version="1.1" id="Layer_1" xmlns="http://www.w3.org/2000/svg" xmlns:xlink="http://www.w3.org/1999/xlink" x="0px" y="0px"
	 viewBox="0 0 720 512" style="enable-background:new 0 0 720 512;" xml:space="preserve">
<style type="text/css">
	.st0{fill:none;stroke:#000000;stroke-miterlimit:10;}
	.st1{fill:#F3FF6F;}
</style>
<path d="M367.4,0.8v195.4H1V0.8H367.4 M368.4-0.2H0v197.4h368.4V-0.2z"/>
<line class="st0" x1="0" y1="20.2" x2="368.4" y2="20.2"/>
<circle class="st0" cx="12.5" cy="9.8" r="3.4"/>
<circle class="st0" cx="22.8" cy="9.8" r="3.4"/>
<circle class="st0" cx="33.1" cy="9.8" r="3.4"/>
<rect x="181.1" y="122.3" class="st1" width="49.1" height="13.7"/>
<path d="M305,76.5v9H182.1v-9H305 M306,75.5H181.1v11H306V75.5z"/>
<path d="M305,94.3v5.7H182.1v-5.7H305 M306,93.3H181.1v7.7H306V93.3z"/>
<path d="M305,106.1v5.7H182.1v-5.7H305 M306,105.1H181.1v7.7H306V105.1z"/>
<path d="M151.7,61.7v88.1H63.6V61.7H151.7 M152.7,60.7H62.6v90.1h90.1V60.7z"/>
<line class="st0" x1="63.6" y1="61.8" x2="151.7" y2="149.9"/>
<line class="st0" x1="63.6" y1="149.9" x2="151.7" y2="61.8"/>
<path d="M674.7,396.9v9h-81.5v-9H674.7 M675.7,395.9h-83.5v11h83.5V395.9z"/>
<path d="M674.7,414.7v5.7h-81.5v-5.7H674.7 M675.7,413.7h-83.5v7.7h83.5V413.7z"/>
<path d="M674.7,426.5v5.7h-81.5v-5.7H674.7 M675.7,425.5h-83.5v7.7h83.5V425.5z"/>
<path d="M575.9,396.9v9h-81.5v-9H575.9 M576.9,395.9h-83.5v11h83.5V395.9z"/>
<path d="M575.9,414.7v5.7h-81.5v-5.7H575.9 M576.9,413.7h-83.5v7.7h83.5V413.7z"/>
<path d="M575.9,426.5v5.7h-81.5v-5.7H575.9 M576.9,425.5h-83.5v7.7h83.5V425.5z"/>
<path d="M478.5,396.9v9h-81.5v-9H478.5 M479.5,395.9h-83.6v11h83.6V395.9z"/>
<path d="M478.5,414.7v5.7h-81.5v-5.7H478.5 M479.5,413.7h-83.6v7.7h83.6V413.7z"/>
<path d="M478.5,426.5v5.7h-81.5v-5.7H478.5 M479.5,425.5h-83.6v7.7h83.6V425.5z"/>
<rect x="510.6" y="442.1" class="st1" width="49.1" height="13.7"/>
<path d="M719,315.7v195.4H352.6V315.7H719 M720,314.7H351.6v197.4H720V314.7z"/>
<line class="st0" x1="351.6" y1="335.2" x2="720" y2="335.2"/>
<circle class="st0" cx="364.1" cy="324.8" r="3.4"/>
<circle class="st0" cx="374.4" cy="324.8" r="3.4"/>
<circle class="st0" cx="384.7" cy="324.8" r="3.4"/>
<path d="M510.3,112.8v174.6h-91.8V112.8H510.3 M511.3,111.8h-93.8v176.6h93.8V111.8z"/>
<line class="st0" x1="417.5" y1="130.1" x2="511.3" y2="130.1"/>
<path class="st0" d="M427.6,117.8h72.5c1.9,0,3.5,1.6,3.5,3.5v0c0,1.9-1.6,3.5-3.5,3.5h-72.5c-1.9,0-3.5-1.6-3.5-3.5v0
	C424.1,119.3,425.6,117.8,427.6,117.8z"/>
<path d="M502.8,200.4v11.3h-76.9v-11.3H502.8 M503.8,199.4h-78.9v13.3h78.9V199.4z"/>
<path d="M502.8,220.2v11.3h-76.9v-11.3H502.8 M503.8,219.2h-78.9v13.3h78.9V219.2z"/>
<path d="M502.8,160.8v11.3h-76.9v-11.3H502.8 M503.8,159.8h-78.9v13.3h78.9V159.8z"/>
<path d="M502.8,180.6v11.3h-76.9v-11.3H502.8 M503.8,179.6h-78.9v13.3h78.9V179.6z"/>
<rect x="425.4" y="239.6" class="st1" width="77.9" height="12.3"/>
<path class="st1" d="M502.8,240.1v11.3h-76.9v-11.3H502.8 M503.8,239.1h-78.9v13.3h78.9V239.1z"/>
<path d="M301.5,250.5v78.6h-91.8v-78.6H301.5 M302.5,249.5h-93.8v80.6h93.8V249.5z"/>
<line class="st0" x1="209.2" y1="250.2" x2="302" y2="329.6"/>
<line class="st0" x1="209.2" y1="329.3" x2="302.1" y2="250.3"/>
<path d="M294.1,346.5v4.9h-76.9v-4.9H294.1 M295.1,345.5h-78.9v6.9h78.9V345.5z"/>
<path d="M294.1,357v4.9h-76.9V357H294.1 M295.1,356h-78.9v6.9h78.9V356z"/>
<path d="M301.5,224.6v174.6h-91.8V224.6H301.5 M302.5,223.6h-93.8v176.6h93.8V223.6z"/>
<line class="st0" x1="208.7" y1="241.9" x2="302.5" y2="241.9"/>
<path class="st0" d="M218.9,229.5h72.6c1.9,0,3.5,1.6,3.5,3.5v0c0,1.9-1.6,3.5-3.5,3.5h-72.6c-1.9,0-3.5-1.6-3.5-3.5v0
	C215.4,231.1,216.9,229.5,218.9,229.5z"/>
<rect x="216.7" y="371.3" class="st1" width="77.9" height="12.3"/>
<path class="st1" d="M294,371.8v11.3h-76.9v-11.3H294 M295,370.8h-78.9v13.3H295V370.8z"/>
<path d="M92.8,336.4V511H1V336.4H92.8 M93.8,335.4H0V512h93.8V335.4z"/>
<line class="st0" x1="0" y1="353.7" x2="93.8" y2="353.7"/>
<path class="st0" d="M10.1,341.3h72.6c1.9,0,3.5,1.6,3.5,3.5v0c0,1.9-1.6,3.5-3.5,3.5H10.1c-1.9,0-3.5-1.6-3.5-3.5v0
	C6.6,342.9,8.2,341.3,10.1,341.3z"/>
<path d="M85.3,424v11.3H8.5V424H85.3 M86.3,423H7.5v13.3h78.8V423z"/>
<path d="M85.3,443.8v11.3H8.5v-11.3H85.3 M86.3,442.8H7.5v13.3h78.8V442.8z"/>
<path d="M85.3,384.4v11.3H8.5v-11.3H85.3 M86.3,383.4H7.5v13.3h78.8V383.4z"/>
<path d="M85.3,404.2v11.3H8.5v-11.3H85.3 M86.3,403.2H7.5v13.3h78.8V403.2z"/>
<rect x="8" y="463.1" class="st1" width="77.9" height="12.3"/>
<path class="st1" d="M85.3,463.6V475H8.5v-11.3L85.3,463.6 M86.3,462.7H7.5V476h78.8V462.7z"/>
<path d="M719,1v174.6h-91.8V1H719 M720,0h-93.8v176.6H720V0z"/>
<line class="st0" x1="626.2" y1="18.3" x2="720" y2="18.3"/>
<path class="st0" d="M636.3,5.9h72.5c1.9,0,3.5,1.6,3.5,3.5v0c0,1.9-1.6,3.5-3.5,3.5h-72.5c-1.9,0-3.5-1.6-3.5-3.5v0
	C632.8,7.5,634.4,5.9,636.3,5.9z"/>
<path d="M711.5,88.7v11.3h-76.9V88.7H711.5 M712.5,87.7h-78.8v13.3h78.8V87.7z"/>
<path d="M711.5,108.5v11.3h-76.9v-11.3H711.5 M712.5,107.5h-78.8v13.3h78.8V107.5z"/>
<path d="M711.5,49v11.3h-76.9V49H711.5 M712.5,48h-78.8v13.3h78.8V48z"/>
<path d="M711.5,68.8v11.3h-76.9V68.8H711.5 M712.5,67.8h-78.8v13.3h78.8V67.8z"/>
<rect x="634.2" y="127.8" class="st1" width="77.9" height="12.3"/>
<path class="st1" d="M711.5,128.3v11.3h-76.9v-11.3H711.5 M712.5,127.3h-78.8v13.3h78.8V127.3z"/>
</svg>
