<?xml version="1.0" encoding="UTF-8"?><svg id="Layer_2" xmlns="http://www.w3.org/2000/svg" viewBox="0 0 88.27 123.05"><g id="Layer_1-2"><rect x="0" y="111.39" width="88.27" height="11.66" rx="4" ry="4"/><path d="m74.44,0H14.33c-2.21,0-4,1.79-4,4v116.49h68.11V4c0-2.21-1.79-4-4-4ZM21.74,14.62c0-1.1.9-2,2-2h14.03c1.1,0,2,.9,2,2v9.89c0,1.1-.9,2-2,2h-14.03c-1.1,0-2-.9-2-2v-9.89Zm0,23.93c0-1.1.9-2,2-2h14.03c1.1,0,2,.9,2,2v9.89c0,1.1-.9,2-2,2h-14.03c-1.1,0-2-.9-2-2v-9.89Zm0,33.82v-9.89c0-1.1.9-2,2-2h14.03c1.1,0,2,.9,2,2v9.89c0,1.1-.9,2-2,2h-14.03c-1.1,0-2-.9-2-2Zm31.41,38.26h-18.03v-20.26c0-3.31,2.69-6,6-6h6.03c3.31,0,6,2.69,6,6v20.26Zm13.88-38.26c0,1.1-.9,2-2,2h-14.03c-1.1,0-2-.9-2-2v-9.89c0-1.1.9-2,2-2h14.03c1.1,0,2,.9,2,2v9.89Zm0-23.93c0,1.1-.9,2-2,2h-14.03c-1.1,0-2-.9-2-2v-9.89c0-1.1.9-2,2-2h14.03c1.1,0,2,.9,2,2v9.89Zm0-23.93c0,1.1-.9,2-2,2h-14.03c-1.1,0-2-.9-2-2v-9.89c0-1.1.9-2,2-2h14.03c1.1,0,2,.9,2,2v9.89Z"/></g></svg>