<?xml version="1.0" encoding="UTF-8"?><svg id="Layer_2" xmlns="http://www.w3.org/2000/svg" viewBox="0 0 88.27 123.05"><defs><style>.cls-1{fill:#f3ff6f;}</style></defs><g id="Layer_1-2"><path d="m14.33,0h60.11c2.21,0,4,1.79,4,4v116.49H10.33V4c0-2.21,1.79-4,4-4Z"/><rect x="0" y="111.39" width="88.27" height="11.66" rx="4" ry="4"/><rect class="cls-1" x="21.74" y="12.62" width="18.03" height="13.89" rx="2" ry="2"/><rect class="cls-1" x="49.01" y="12.62" width="18.03" height="13.89" rx="2" ry="2"/><rect class="cls-1" x="21.74" y="36.55" width="18.03" height="13.89" rx="2" ry="2"/><rect class="cls-1" x="49.01" y="36.55" width="18.03" height="13.89" rx="2" ry="2"/><rect class="cls-1" x="21.74" y="60.48" width="18.03" height="13.89" rx="2" ry="2"/><rect class="cls-1" x="49.01" y="60.48" width="18.03" height="13.89" rx="2" ry="2"/><path class="cls-1" d="m41.12,84.37h6.03c3.31,0,6,2.69,6,6v20.26h-18.03v-20.26c0-3.31,2.69-6,6-6Z"/></g></svg>