<?xml version="1.0" encoding="UTF-8"?><svg id="Layer_2" xmlns="http://www.w3.org/2000/svg" viewBox="0 0 88.27 120.06"><g id="Layer_1-2"><path d="m75.15,38.26c5.47-9.37,7.42-22.27,7.94-26.6h1.17c2.21,0,4-1.79,4-4v-3.66c0-2.21-1.79-4-4-4H4C1.79,0,0,1.79,0,4v3.66c0,2.21,1.79,4,4,4h.03c.51,4.21,2.42,16.51,8.11,26.55,2.74,4.84,6.43,8.75,9.68,12.19,3.15,3.34,6.41,6.79,6.37,8.93-.03,1.79-3.71,6.29-6.4,9.57-3,3.67-6.41,7.84-8.65,12.18-6.09,11.84-8.42,23.52-9.05,27.32h-.09c-2.21,0-4,1.79-4,4v3.66c0,2.21,1.79,4,4,4h80.27c2.21,0,4-1.79,4-4v-3.66c0-2.21-1.79-4-4-4h-.47c-.68-3.9-3.23-16.36-9.65-28.5-2.41-4.57-6.11-8.78-9.38-12.5-2.35-2.68-5.91-6.73-6.08-8.18-.08-1.95,3.07-5.17,6.12-8.29,3.41-3.49,7.28-7.45,10.33-12.68Zm-11.51,43.28c.85,1.27,1.62,2.54,2.25,3.81.41.83.8,1.67,1.18,2.5.06.14.12.27.19.41.35.8.69,1.59,1.02,2.39.06.15.12.3.18.45.32.81.64,1.61.93,2.4.03.07.05.15.08.22.29.79.57,1.58.83,2.35.02.07.05.14.07.21.27.8.52,1.58.76,2.35.03.1.07.21.1.31.24.77.47,1.53.68,2.27.01.05.03.09.04.14.45,1.57.83,3.05,1.16,4.4.23.94.43,1.83.61,2.64H14.53c.17-.8.37-1.68.59-2.6,0-.01,0-.03.01-.04.08-.33.16-.66.25-1,.04-.16.08-.32.12-.48.08-.31.16-.62.24-.94.06-.23.13-.47.19-.71.08-.28.15-.56.23-.84.14-.51.29-1.02.45-1.55.06-.2.12-.41.19-.61.12-.39.24-.77.36-1.17.07-.22.14-.44.21-.66.13-.41.27-.83.41-1.25.07-.2.13-.39.2-.59.21-.62.43-1.24.67-1.87,2.2-1.39,4.69-2.34,7.23-2.03,7.63.91,10.17,2.63,18.25,0,5.7-1.85,14.68-7.39,19.49-10.5Zm-5.36-37.66c-4.59,4.66-9.27,10.94-8.7,14.82.57,3.88-3.08,5.29-3.08,5.29-2.56.74-9.03-.25-8.45-5.39.58-5.14-4.25-10.3-8.84-15.14-2.2-2.31-4.45-4.69-6.36-7.29,1.64.33,3.36.61,4.3.6,6.48-.06,19.12-3.35,25.34-5.05,3.69-1.01,11.99-3.35,17.66-4.96-.81,2.2-1.77,4.36-2.9,6.29-2.48,4.22-5.93,7.73-8.97,10.82Z"/><path d="m14.53,108.4h59.2c-.18-.81-.38-1.7-.61-2.64H15.14c-.23.94-.43,1.83-.6,2.64Z"/></g></svg>