<?xml version="1.0" encoding="UTF-8"?><svg id="Layer_2" xmlns="http://www.w3.org/2000/svg" viewBox="0 0 88.27 120.06"><defs><style>.cls-1{fill:#f3ff6f;}</style></defs><g id="Layer_1-2"><rect x="0" y="108.4" width="88.27" height="11.66" rx="4" ry="4"/><rect x="0" y="0" width="88.27" height="11.66" rx="4" ry="4"/><path d="m8.35,11.66h70.42s-1.42,15.18-7.51,25.22-17.34,15.89-17.06,22.55c.21,5.15,11.22,13.11,15.97,21.77,7.29,13.29,9.37,27.21,9.37,27.21H8.35s1.8-13.04,8.79-26.12c4.67-8.73,15.45-17.18,15.55-22.86.12-6.7-10.88-12.78-16.63-22.55-6.43-10.92-7.7-25.22-7.7-25.22Z"/><path class="cls-1" d="m65.9,85.35c-.63-1.27-1.4-2.54-2.25-3.81-4.81,3.11-13.79,8.65-19.49,10.5-8.08,2.63-10.63.91-18.25,0-2.54-.3-5.04.64-7.23,2.03-2.04,5.54-3.35,10.66-4.13,14.33h59.2c-1.22-5.58-3.62-14.5-7.84-23.05Z"/><path class="cls-1" d="m46.51,64s3.65-1.41,3.08-5.29,4.1-10.15,8.7-14.82c3.04-3.09,6.49-6.59,8.97-10.82,1.14-1.93,2.09-4.09,2.9-6.29-5.66,1.6-13.97,3.95-17.66,4.96-6.21,1.7-18.86,4.99-25.34,5.05-.94,0-2.66-.28-4.3-.6,1.91,2.6,4.16,4.97,6.36,7.28,4.6,4.84,9.43,10,8.84,15.14s5.88,6.13,8.45,5.39Z"/><path d="m84.74,114.77H3.21l.68-5.09c.08-.58,1.99-14.48,9.25-28.59,2.24-4.34,5.64-8.51,8.65-12.18,2.69-3.29,6.37-7.79,6.4-9.57.04-2.13-3.22-5.59-6.37-8.93-3.25-3.45-6.93-7.35-9.68-12.19C5.3,26.15,3.92,10.82,3.87,10.18l-.42-4.88h80.25l-.44,4.9c-.06.68-1.58,16.89-8.1,28.06-3.05,5.23-6.92,9.19-10.34,12.68-3.04,3.12-6.19,6.34-6.12,8.29.17,1.45,3.72,5.5,6.08,8.18,3.26,3.72,6.96,7.93,9.38,12.5,7.57,14.33,9.76,29.1,9.85,29.72l.74,5.14Zm-70.95-9h60.27c-1.21-5.2-3.61-13.59-7.87-21.65-1.92-3.63-5.25-7.42-8.18-10.77-4.36-4.97-8.13-9.26-8.31-13.76-.23-5.82,4.09-10.25,8.67-14.93,3.05-3.12,6.51-6.66,9-10.93,3.52-6.03,5.36-14.25,6.23-19.42H13.53c.88,5.01,2.75,12.96,6.44,19.47,2.21,3.89,5.36,7.23,8.4,10.46,4.59,4.86,8.92,9.46,8.82,15.26-.08,4.91-3.95,9.64-8.43,15.12-2.86,3.49-5.81,7.1-7.61,10.6-4,7.78-6.23,15.63-7.35,20.57Z"/></g></svg>