<svg width="177" height="45" viewBox="0 0 177 45" fill="none" xmlns="http://www.w3.org/2000/svg">
<path d="M28.269 8.70972C28.269 3.89947 32.1685 0 36.9788 0C41.789 0 45.6885 3.89947 45.6885 8.70972C45.6885 13.52 41.789 17.4194 36.9788 17.4194C32.1685 17.4194 28.269 13.52 28.269 8.70972Z" fill="#2F3233"/>
<path d="M37.5061 21.2795V27.5473C37.5061 30.3242 37.5046 32.2885 37.3771 33.8231C37.2516 35.3346 37.014 36.2551 36.6389 36.9772C35.9081 38.3841 34.761 39.5311 33.3542 40.2619C32.632 40.6371 31.7116 40.8746 30.2001 41.0002C28.6654 41.1276 26.7011 41.1292 23.9242 41.1292H18.1413C15.3645 41.1292 13.4001 41.1276 11.8655 41.0002C10.354 40.8746 9.43354 40.6371 8.71138 40.2619C7.30454 39.5311 6.15747 38.3841 5.42668 36.9772C5.05154 36.2551 4.81398 35.3346 4.68846 33.8231C4.56102 32.2885 4.55946 30.3242 4.55946 27.5473V21.7644C4.55946 18.9875 4.56102 17.0232 4.68846 15.4885C4.81398 13.9771 5.05154 13.0566 5.42668 12.3344C6.15747 10.9276 7.30454 9.78051 8.71138 9.04972C9.43354 8.67459 10.354 8.43703 11.8655 8.31151C13.4001 8.18407 15.3644 8.18251 18.1413 8.18251H24.4091C24.465 6.82568 24.7358 5.52431 25.1884 4.31152L18.0552 4.31152C15.3838 4.31151 13.2588 4.3115 11.5451 4.45381C9.78995 4.59956 8.29374 4.90457 6.92695 5.61456C4.81311 6.71261 3.08956 8.43616 1.99151 10.55C1.28152 11.9168 0.976518 13.413 0.830758 15.1682C0.688449 16.8818 0.688461 19.0069 0.688477 21.6783V27.6334C0.688461 30.3048 0.688449 32.4299 0.830758 34.1435C0.976518 35.8987 1.28152 37.3949 1.99151 38.7617C3.08956 40.8755 4.81311 42.5991 6.92695 43.6971C8.29374 44.4071 9.78995 44.7121 11.5451 44.8579C13.2587 45.0002 15.3838 45.0002 18.0551 45.0001H24.0103C26.6816 45.0002 28.8068 45.0002 30.5204 44.8579C32.2756 44.7121 33.7718 44.4071 35.1386 43.6971C37.2525 42.5991 38.976 40.8755 40.0741 38.7617C40.784 37.3949 41.0891 35.8987 41.2348 34.1435C41.3771 32.4299 41.3771 30.3049 41.3771 27.6335V20.5001C40.1643 20.9527 38.8629 21.2235 37.5061 21.2795Z" fill="#2F3233"/>
<path d="M70.6009 20.9475C70.6009 22.1359 70.3144 23.25 69.7414 24.2898C69.1897 25.3297 68.309 26.1679 67.0994 26.8046C65.911 27.4412 64.4043 27.7595 62.5792 27.7595H58.8549V36.2905H54.3984V14.0718H62.5792C64.2982 14.0718 65.7624 14.3689 66.972 14.9631C68.1817 15.5573 69.0836 16.3743 69.6778 17.4142C70.2932 18.454 70.6009 19.6318 70.6009 20.9475ZM62.3882 24.1625C63.6191 24.1625 64.5316 23.8866 65.1258 23.3349C65.72 22.7619 66.0171 21.9661 66.0171 20.9475C66.0171 18.7829 64.8075 17.7006 62.3882 17.7006H58.8549V24.1625H62.3882Z" fill="#2F3233"/>
<path d="M76.9481 21.3931C77.5211 20.4594 78.2638 19.7273 79.1763 19.1967C80.1101 18.6662 81.1711 18.4009 82.3595 18.4009V23.0802H81.1818C79.7811 23.0802 78.7201 23.4092 77.9986 24.067C77.2983 24.7249 76.9481 25.8708 76.9481 27.5049V36.2905H72.4916V18.6556H76.9481V21.3931Z" fill="#2F3233"/>
<path d="M91.9186 36.577C90.2209 36.577 88.6929 36.2056 87.3348 35.4628C85.9766 34.6989 84.9049 33.6272 84.1197 32.2478C83.3558 30.8684 82.9738 29.2768 82.9738 27.473C82.9738 25.6692 83.3664 24.0776 84.1516 22.6982C84.958 21.3189 86.0509 20.2578 87.4303 19.5151C88.8096 18.7511 90.3482 18.3691 92.0459 18.3691C93.7436 18.3691 95.2821 18.7511 96.6615 19.5151C98.0409 20.2578 99.1232 21.3189 99.9084 22.6982C100.715 24.0776 101.118 25.6692 101.118 27.473C101.118 29.2768 100.704 30.8684 99.8765 32.2478C99.0701 33.6272 97.9666 34.6989 96.566 35.4628C95.1866 36.2056 93.6375 36.577 91.9186 36.577ZM91.9186 32.6935C92.725 32.6935 93.4783 32.5025 94.1786 32.1205C94.9001 31.7173 95.4731 31.1231 95.8975 30.3379C96.322 29.5527 96.5342 28.5978 96.5342 27.473C96.5342 25.7966 96.0885 24.5127 95.1972 23.6214C94.3272 22.7089 93.2555 22.2526 91.9822 22.2526C90.7089 22.2526 89.6373 22.7089 88.7672 23.6214C87.9183 24.5127 87.4939 25.7966 87.4939 27.473C87.4939 29.1495 87.9077 30.444 88.7354 31.3565C89.5842 32.2478 90.6453 32.6935 91.9186 32.6935Z" fill="#2F3233"/>
<path d="M101.968 27.4094C101.968 25.6268 102.318 24.0458 103.018 22.6664C103.74 21.287 104.716 20.226 105.947 19.4832C107.178 18.7405 108.546 18.3691 110.053 18.3691C111.199 18.3691 112.292 18.6238 113.332 19.1331C114.372 19.6212 115.199 20.279 115.815 21.1067V12.7349H120.335V36.2905H115.815V33.6803C115.263 34.5503 114.488 35.2506 113.491 35.7812C112.493 36.3117 111.337 36.577 110.021 36.577C108.536 36.577 107.178 36.195 105.947 35.431C104.716 34.667 103.74 33.5954 103.018 32.216C102.318 30.8154 101.968 29.2132 101.968 27.4094ZM115.846 27.473C115.846 26.3907 115.634 25.4676 115.21 24.7037C114.785 23.9185 114.212 23.3243 113.491 22.9211C112.769 22.4966 111.995 22.2844 111.167 22.2844C110.34 22.2844 109.576 22.486 108.875 22.8892C108.175 23.2924 107.602 23.8866 107.156 24.6718C106.732 25.4358 106.52 26.3483 106.52 27.4094C106.52 28.4704 106.732 29.4042 107.156 30.2106C107.602 30.9958 108.175 31.6006 108.875 32.025C109.597 32.4494 110.361 32.6616 111.167 32.6616C111.995 32.6616 112.769 32.46 113.491 32.0568C114.212 31.6324 114.785 31.0382 115.21 30.2742C115.634 29.4891 115.846 28.5553 115.846 27.473Z" fill="#2F3233"/>
<path d="M140.062 18.6556V36.2905H135.574V34.0622C135.001 34.8262 134.247 35.431 133.314 35.8767C132.401 36.3011 131.404 36.5133 130.322 36.5133C128.942 36.5133 127.722 36.2268 126.661 35.6538C125.6 35.0596 124.762 34.2002 124.146 33.0755C123.552 31.9295 123.255 30.5713 123.255 29.001V18.6556H127.711V28.3643C127.711 29.7649 128.061 30.8472 128.762 31.6112C129.462 32.3539 130.417 32.7253 131.627 32.7253C132.857 32.7253 133.823 32.3539 134.523 31.6112C135.224 30.8472 135.574 29.7649 135.574 28.3643V18.6556H140.062Z" fill="#2F3233"/>
<path d="M142.04 27.473C142.04 25.648 142.411 24.0564 143.154 22.6982C143.897 21.3189 144.926 20.2578 146.242 19.5151C147.557 18.7511 149.064 18.3691 150.762 18.3691C152.948 18.3691 154.751 18.9209 156.173 20.0244C157.616 21.1067 158.582 22.6346 159.07 24.6082H154.263C154.009 23.8442 153.574 23.25 152.958 22.8256C152.364 22.3799 151.621 22.1571 150.73 22.1571C149.457 22.1571 148.449 22.624 147.706 23.5577C146.963 24.4702 146.592 25.7753 146.592 27.473C146.592 29.1495 146.963 30.4546 147.706 31.3884C148.449 32.3009 149.457 32.7571 150.73 32.7571C152.534 32.7571 153.712 31.9507 154.263 30.3379H159.07C158.582 32.2478 157.616 33.7651 156.173 34.8899C154.73 36.0146 152.926 36.577 150.762 36.577C149.064 36.577 147.557 36.2056 146.242 35.4628C144.926 34.6989 143.897 33.6378 143.154 32.2797C142.411 30.9003 142.04 29.2981 142.04 27.473Z" fill="#2F3233"/>
<path d="M166.25 22.3163V30.8472C166.25 31.4414 166.388 31.8764 166.664 32.1523C166.961 32.407 167.449 32.5343 168.128 32.5343H170.197V36.2905H167.396C163.64 36.2905 161.762 34.4654 161.762 30.8154V22.3163H159.661V18.6556H161.762V14.2946H166.25V18.6556H170.197V22.3163H166.25Z" fill="#2F3233"/>
<path d="M174.103 36.5134C173.296 36.5134 172.628 36.2694 172.097 35.7813C171.588 35.272 171.333 34.6459 171.333 33.9032C171.333 33.1604 171.588 32.545 172.097 32.0569C172.628 31.5476 173.296 31.293 174.103 31.293C174.888 31.293 175.535 31.5476 176.045 32.0569C176.554 32.545 176.809 33.1604 176.809 33.9032C176.809 34.6459 176.554 35.272 176.045 35.7813C175.535 36.2694 174.888 36.5134 174.103 36.5134Z" fill="#2F3233"/>
</svg>
