<svg width="172" height="45" viewBox="0 0 172 45" fill="none" xmlns="http://www.w3.org/2000/svg">
<path fill-rule="evenodd" clip-rule="evenodd" d="M34.7652 7.90795H16.125V0H42.6731V26.5481H34.7652V7.90795Z" fill="#2F3233"/>
<path fill-rule="evenodd" clip-rule="evenodd" d="M20.2047 23.6435C18.9971 22.8367 17.5774 22.406 16.1251 22.406V14.498C19.1414 14.498 22.0901 15.3925 24.5981 17.0683C27.1061 18.7441 29.0609 21.126 30.2152 23.9128C31.3695 26.6995 31.6715 29.766 31.0831 32.7244C30.4946 35.6828 29.0421 38.4003 26.9092 40.5332C24.7763 42.6661 22.0588 44.1186 19.1004 44.7071C16.142 45.2956 13.0755 44.9935 10.2887 43.8392C7.50196 42.6849 5.12008 40.7301 3.44427 38.2221C1.76847 35.7141 0.874018 32.7654 0.874023 29.7491L8.78197 29.7491C8.78197 31.2014 9.21263 32.6211 10.0195 33.8287C10.8264 35.0363 11.9732 35.9774 13.315 36.5332C14.6568 37.089 16.1332 37.2344 17.5576 36.9511C18.982 36.6678 20.2905 35.9684 21.3174 34.9414C22.3444 33.9145 23.0437 32.6061 23.3271 31.1817C23.6104 29.7572 23.465 28.2808 22.9092 26.939C22.3534 25.5972 21.4122 24.4504 20.2047 23.6435Z" fill="#2F3233"/>
<path d="M55.1001 38.805V5.62695H67.376C70.0302 5.62695 72.2263 6.06933 73.9642 6.95407C75.7021 7.83882 76.9976 9.05535 77.8507 10.6037C78.7039 12.152 79.1305 13.8899 79.1305 15.8173C79.1305 17.65 78.7197 19.3405 77.8981 20.8888C77.0766 22.4056 75.7969 23.6379 74.059 24.5858C72.3211 25.5022 70.0934 25.9603 67.376 25.9603H61.1669V38.805H55.1001ZM61.1669 21.031H66.9968C69.1139 21.031 70.6306 20.5729 71.5469 19.6565C72.4949 18.7086 72.9688 17.4289 72.9688 15.8173C72.9688 14.1742 72.4949 12.8945 71.5469 11.9782C70.6306 11.0302 69.1139 10.5563 66.9968 10.5563H61.1669V21.031Z" fill="#2F3233"/>
<path d="M91.5974 39.3737C89.2275 39.3737 87.1263 38.8682 85.2936 37.857C83.4609 36.8459 82.0232 35.424 80.9804 33.5913C79.9377 31.7586 79.4163 29.6415 79.4163 27.2401C79.4163 24.807 79.9219 22.6425 80.933 20.7467C81.9758 18.8508 83.3977 17.3815 85.1988 16.3387C87.0315 15.2644 89.1802 14.7272 91.6448 14.7272C93.9515 14.7272 95.9895 15.2328 97.759 16.2439C99.5285 17.2551 100.903 18.6454 101.883 20.4149C102.894 22.1528 103.399 24.0961 103.399 26.2447C103.399 26.5923 103.384 26.9557 103.352 27.3349C103.352 27.714 103.336 28.109 103.305 28.5198H85.4358C85.5622 30.3525 86.1941 31.7902 87.3317 32.8329C88.5008 33.8757 89.9069 34.397 91.55 34.397C92.7823 34.397 93.8093 34.1285 94.6308 33.5913C95.484 33.0225 96.1159 32.2958 96.5267 31.411H102.688C102.246 32.8961 101.503 34.2549 100.461 35.4872C99.4495 36.6879 98.1856 37.6359 96.6689 38.331C95.1838 39.0262 93.4933 39.3737 91.5974 39.3737ZM91.6448 19.6565C90.1597 19.6565 88.8484 20.0831 87.7108 20.9362C86.5733 21.7578 85.8466 23.0217 85.5306 24.728H97.2377C97.1429 23.1797 96.5741 21.9474 95.5314 21.031C94.4886 20.1147 93.1931 19.6565 91.6448 19.6565Z" fill="#2F3233"/>
<path d="M106.132 38.805V15.296H111.488L111.962 19.2773C112.689 17.887 113.731 16.7811 115.09 15.9595C116.48 15.138 118.108 14.7272 119.972 14.7272C122.879 14.7272 125.138 15.6436 126.75 17.4762C128.361 19.3089 129.167 21.9948 129.167 25.5338V38.805H123.1V26.1025C123.1 24.0803 122.689 22.5319 121.868 21.4576C121.046 20.3833 119.767 19.8461 118.029 19.8461C116.322 19.8461 114.916 20.4465 113.81 21.6472C112.736 22.8479 112.199 24.5226 112.199 26.6713V38.805H106.132Z" fill="#2F3233"/>
<path d="M143.073 38.805C140.609 38.805 138.634 38.2046 137.149 37.0039C135.664 35.8032 134.921 33.6703 134.921 30.6053V20.3675H130.892V15.296H134.921L135.632 8.99215H140.988V15.296H147.339V20.3675H140.988V30.6527C140.988 31.7902 141.225 32.5802 141.699 33.0225C142.204 33.4333 143.058 33.6387 144.258 33.6387H147.197V38.805H143.073Z" fill="#2F3233"/>
<path d="M158.283 39.3737C156.261 39.3737 154.602 39.0578 153.306 38.4258C152.011 37.7622 151.047 36.8933 150.415 35.819C149.783 34.7446 149.467 33.5597 149.467 32.2642C149.467 30.0839 150.32 28.3144 152.027 26.9557C153.733 25.597 156.292 24.9176 159.705 24.9176H165.677V24.3488C165.677 22.7373 165.219 21.5524 164.302 20.7941C163.386 20.0357 162.249 19.6565 160.89 19.6565C159.658 19.6565 158.583 19.9567 157.667 20.5571C156.751 21.1258 156.182 21.979 155.961 23.1165H150.036C150.194 21.4102 150.763 19.9251 151.742 18.6612C152.753 17.3973 154.049 16.4335 155.629 15.77C157.209 15.0748 158.978 14.7272 160.937 14.7272C164.287 14.7272 166.925 15.5646 168.853 17.2393C170.78 18.914 171.744 21.2838 171.744 24.3488V38.805H166.578L166.009 35.0132C165.314 36.2771 164.334 37.3199 163.07 38.1414C161.838 38.963 160.242 39.3737 158.283 39.3737ZM159.658 34.634C161.395 34.634 162.738 34.0653 163.686 32.9277C164.666 31.7902 165.282 30.3841 165.535 28.7094H160.369C158.757 28.7094 157.604 29.0096 156.909 29.6099C156.213 30.1787 155.866 30.8897 155.866 31.7428C155.866 32.6591 156.213 33.3701 156.909 33.8757C157.604 34.3812 158.52 34.634 159.658 34.634Z" fill="#2F3233"/>
</svg>
