<svg fill="none" height="45" viewBox="0 0 165 45" width="165" xmlns="http://www.w3.org/2000/svg"><g fill="#2f3233"><path d="m21.1017 45h-14.64287l14.64287-22.1429h14.6429z"/><path d="m15.7442 0h15l-15 22.8572h-15.000059z"/><path d="m65.6168 19.2629c0 1.358-.3273 2.631-.982 3.8192-.6305 1.1882-1.6368 2.146-3.019 2.8734-1.3579.7275-3.0796 1.0912-5.1649 1.0912h-4.2557v9.748h-5.0922v-25.3883h9.3479c1.9641 0 3.6372.3395 5.0194 1.0184 1.3822.679 2.4128 1.6126 3.0917 2.8007.7032 1.1882 1.0548 2.534 1.0548 4.0374zm-9.3842 3.6737c1.4064 0 2.4491-.3152 3.1281-.9457.679-.6547 1.0184-1.564 1.0184-2.728 0-2.4733-1.3821-3.71-4.1465-3.71h-4.0374v7.3837z"/><path d="m72.8695 19.7722c.6547-1.067 1.5034-1.9036 2.5461-2.5098 1.067-.6062 2.2794-.9093 3.6373-.9093v5.3468h-1.3458c-1.6004 0-2.8128.3759-3.6373 1.1276-.8002.7517-1.2003 2.0611-1.2003 3.9282v10.039h-5.0922v-20.1506h5.0922z"/><path d="m89.9756 37.122c-1.9399 0-3.6858-.4243-5.2377-1.273-1.5519-.873-2.7765-2.0975-3.6737-3.6737-.8729-1.5761-1.3094-3.3948-1.3094-5.4559 0-2.0612.4486-3.8798 1.3458-5.456.9214-1.5761 2.1702-2.7885 3.7464-3.6372 1.5762-.873 3.3342-1.3095 5.2741-1.3095s3.6979.4365 5.274 1.3095c1.5762.8487 2.8129 2.0611 3.7101 3.6372.9218 1.5762 1.3818 3.3948 1.3818 5.456 0 2.0611-.473 3.8798-1.4182 5.4559-.9214 1.5762-2.1824 2.8007-3.7828 3.6737-1.5761.8487-3.3463 1.273-5.3104 1.273zm0-4.4375c.9214 0 1.7823-.2182 2.5825-.6547.8244-.4607 1.4791-1.1397 1.9641-2.0369s.7274-1.9883.7274-3.2735c0-1.9157-.5092-3.3827-1.5276-4.4011-.9942-1.0427-2.2188-1.5641-3.6737-1.5641s-2.6794.5214-3.6736 1.5641c-.97 1.0184-1.455 2.4854-1.455 4.4011 0 1.9156.4729 3.3948 1.4186 4.4375.9699 1.0184 2.1824 1.5276 3.6373 1.5276z"/><path d="m107.86 32.7573h5.468v4.0374h-10.56v-28.51638h5.092z"/><path d="m117.279 14.2435c-.898 0-1.649-.2789-2.256-.8366-.582-.582-.873-1.2973-.873-2.146s.291-1.55191.873-2.10963c.607-.58197 1.358-.87295 2.256-.87295.897 0 1.636.29098 2.218.87295.607.55772.91 1.26093.91 2.10963s-.303 1.564-.91 2.146c-.582.5577-1.321.8366-2.218.8366zm2.509 2.4006v20.1506h-5.092v-20.1506z"/><path d="m134.531 16.3531c2.401 0 4.34.7638 5.82 2.2915 1.479 1.5034 2.218 3.613 2.218 6.3289v11.8212h-5.092v-11.1301c0-1.6004-.4-2.825-1.2-3.6737-.8-.8729-1.892-1.3094-3.274-1.3094-1.406 0-2.522.4365-3.346 1.3094-.8.8487-1.2 2.0733-1.2 3.6737v11.1301h-5.093v-20.1506h5.093v2.5097c.679-.8729 1.539-1.5519 2.582-2.0369 1.067-.5092 2.231-.7638 3.492-.7638z"/><path d="m164.689 26.2829c0 .7275-.049 1.3822-.146 1.9641h-14.731c.122 1.455.631 2.5946 1.528 3.4191.897.8244 2.001 1.2367 3.31 1.2367 1.891 0 3.237-.8124 4.037-2.437h5.493c-.582 1.9399-1.698 3.5403-3.347 4.8012-1.649 1.2367-3.673 1.855-6.074 1.855-1.94 0-3.686-.4243-5.238-1.273-1.527-.873-2.728-2.0975-3.601-3.6737-.848-1.5761-1.273-3.3948-1.273-5.4559 0-2.0854.425-3.9162 1.273-5.4923.849-1.5762 2.037-2.7886 3.565-3.6373s3.286-1.2731 5.274-1.2731c1.916 0 3.625.4123 5.129 1.2367 1.527.8245 2.703 2.0005 3.528 3.5282.849 1.5034 1.273 3.2372 1.273 5.2013zm-5.274-1.4549c-.024-1.3094-.497-2.3521-1.419-3.1281-.921-.8002-2.049-1.2003-3.382-1.2003-1.261 0-2.328.388-3.201 1.1639-.849.7517-1.37 1.8066-1.564 3.1645z"/></g></svg>