<svg width="176" height="45" viewBox="0 0 176 45" fill="none" xmlns="http://www.w3.org/2000/svg">
<path d="M59.9438 34.9286C61.7189 35.8036 63.8441 36.2412 66.3193 36.2412C68.9195 36.2412 71.1572 35.7536 73.0324 34.7786C74.9075 33.8035 76.3827 32.5034 77.4578 30.8782C78.5329 29.2531 79.1954 27.4655 79.4454 25.5153H74.0825C73.7825 27.3404 72.9199 28.7656 71.4948 29.7906C70.0946 30.7907 68.3695 31.2908 66.3193 31.2908C64.9192 31.2908 63.6816 31.0533 62.6065 30.5782C61.5564 30.1032 60.6689 29.4406 59.9438 28.5905C59.2187 27.7155 58.6687 26.7029 58.2937 25.5528C57.9436 24.4027 57.7686 23.1526 57.7686 21.8025C57.7686 20.4024 57.9436 19.1273 58.2937 17.9772C58.6687 16.8271 59.2062 15.827 59.9063 14.9769C60.6064 14.1268 61.4814 13.4768 62.5315 13.0267C63.5816 12.5517 64.7817 12.3142 66.1318 12.3142C67.4569 12.3142 68.6445 12.5392 69.6946 12.9892C70.7447 13.4143 71.6073 14.0643 72.2823 14.9394C72.9824 15.7895 73.4324 16.8396 73.6324 18.0897H78.9954C78.7704 15.9395 78.1078 14.0643 77.0077 12.4642C75.9076 10.8391 74.4325 9.58896 72.5824 8.71388C70.7572 7.81381 68.607 7.36377 66.1318 7.36377C63.7566 7.36377 61.6939 7.7763 59.9438 8.60137C58.2187 9.40144 56.7935 10.4765 55.6684 11.8266C54.5433 13.1768 53.7058 14.6769 53.1557 16.327C52.6307 17.9772 52.3682 19.6523 52.3682 21.3524V22.1775C52.3682 23.7026 52.6307 25.2903 53.1557 26.9404C53.6808 28.5905 54.4933 30.1157 55.5934 31.5158C56.7185 32.9159 58.1686 34.0535 59.9438 34.9286Z" fill="#2F3233"/>
<path fill-rule="evenodd" clip-rule="evenodd" d="M93.3526 33.0534C93.6104 32.6164 93.8229 32.1342 93.9902 31.6069V35.5286H98.1155V22.8901C98.1155 20.9899 97.753 19.4523 97.028 18.2772C96.3279 17.1021 95.2778 16.2395 93.8777 15.6895C92.5026 15.1394 90.7649 14.8644 88.6648 14.8644C87.9897 14.8644 87.2646 14.8769 86.4896 14.9019C85.7395 14.9019 85.0019 14.9269 84.2769 14.9769C83.5518 15.0269 82.9018 15.0769 82.3267 15.1269V19.5523C83.0268 19.5023 83.8144 19.4648 84.6894 19.4398C85.5895 19.3898 86.4771 19.3523 87.3521 19.3273C88.2272 19.3023 88.9773 19.2898 89.6023 19.2898C90.8024 19.2898 91.69 19.5773 92.2651 20.1523C92.8401 20.7274 93.1276 21.6025 93.1276 22.7776V22.9651H88.9648C87.1646 22.9651 85.5895 23.2026 84.2394 23.6776C82.9143 24.1527 81.8767 24.8652 81.1266 25.8153C80.4016 26.7654 80.039 27.9905 80.039 29.4906C80.039 30.8657 80.3391 32.0408 80.9391 33.0159C81.5642 33.991 82.4267 34.7411 83.5268 35.2661C84.6519 35.7911 85.952 36.0537 87.4272 36.0537C88.8523 36.0537 90.0524 35.8036 91.0275 35.3036C92.0275 34.7786 92.8026 34.0285 93.3526 33.0534ZM92.4151 30.6157C92.8401 29.9657 93.0776 29.0906 93.1276 27.9905V26.0778H88.8898C87.6897 26.0778 86.7646 26.3779 86.1145 26.9779C85.4895 27.553 85.177 28.303 85.177 29.2281C85.177 30.1532 85.4895 30.9032 86.1145 31.4783C86.7646 32.0533 87.6897 32.3409 88.8898 32.3409C89.6148 32.3409 90.2774 32.2158 90.8774 31.9658C91.5025 31.6908 92.015 31.2408 92.4151 30.6157Z" fill="#2F3233"/>
<path d="M110.863 36.2412C109.087 36.2412 107.55 35.9412 106.25 35.3411C104.975 34.7411 103.899 33.941 103.024 32.9409C102.174 31.9408 101.537 30.8157 101.112 29.5656C100.687 28.3155 100.474 27.0404 100.474 25.7403V25.0277C100.474 23.6526 100.687 22.34 101.112 21.0899C101.562 19.8148 102.224 18.6897 103.099 17.7146C103.974 16.7146 105.05 15.927 106.325 15.3519C107.625 14.7519 109.125 14.4519 110.825 14.4519C112.6 14.4519 114.188 14.8019 115.588 15.502C116.988 16.177 118.101 17.1271 118.926 18.3522C119.776 19.5773 120.251 21.0024 120.351 22.6275H115.288C115.163 21.5775 114.713 20.7024 113.938 20.0023C113.188 19.3023 112.15 18.9522 110.825 18.9522C109.675 18.9522 108.712 19.2273 107.937 19.7773C107.187 20.3274 106.625 21.0899 106.25 22.065C105.875 23.0151 105.687 24.1152 105.687 25.3653C105.687 26.5654 105.862 27.653 106.212 28.628C106.587 29.6031 107.15 30.3657 107.9 30.9157C108.675 31.4658 109.662 31.7408 110.863 31.7408C111.763 31.7408 112.538 31.5783 113.188 31.2533C113.838 30.9282 114.35 30.4782 114.725 29.9032C115.125 29.3281 115.375 28.6781 115.475 27.953H120.538C120.438 29.6031 119.951 31.0533 119.076 32.3034C118.226 33.5285 117.088 34.491 115.663 35.1911C114.263 35.8912 112.663 36.2412 110.863 36.2412Z" fill="#2F3233"/>
<path d="M127.04 35.0786C128.265 35.5536 129.815 35.7911 131.69 35.7911H134.615V31.3283H131.427C130.427 31.3283 129.652 31.0658 129.102 30.5407C128.577 29.9907 128.315 29.2156 128.315 28.2155L128.333 18.9897H134.615V15.1644H128.341L128.352 9.42644H123.477L123.465 15.1644H120.214V18.9897H123.457L123.439 27.878C123.439 29.8532 123.739 31.4283 124.339 32.6034C124.939 33.7535 125.839 34.5785 127.04 35.0786Z" fill="#2F3233"/>
<path d="M144.053 36.1662C141.703 36.1662 139.878 35.3911 138.578 33.841C137.303 32.2909 136.665 29.9907 136.665 26.9404V15.1269H141.878V27.3904C141.878 28.6405 142.228 29.6406 142.928 30.3907C143.628 31.1158 144.578 31.4783 145.779 31.4783C146.979 31.4783 147.954 31.0908 148.704 30.3157C149.479 29.5406 149.866 28.4905 149.866 27.1654V15.1269H155.079V35.5286H150.954V30.7864C150.849 31.2178 150.724 31.6234 150.579 32.0033C150.054 33.3784 149.266 34.416 148.216 35.1161C147.166 35.8161 145.854 36.1662 144.278 36.1662H144.053Z" fill="#2F3233"/>
<path d="M159.98 34.4035C161.58 35.5786 163.78 36.1662 166.58 36.1662C168.381 36.1662 169.943 35.8912 171.268 35.3411C172.593 34.7911 173.619 34.0285 174.344 33.0534C175.094 32.0533 175.469 30.8782 175.469 29.5281C175.469 27.703 174.781 26.2529 173.406 25.1778C172.056 24.1027 170.181 23.4401 167.781 23.1901L165.98 23.0026C164.88 22.8776 164.08 22.64 163.58 22.29C163.105 21.94 162.868 21.4399 162.868 20.7899C162.868 20.1148 163.168 19.5648 163.768 19.1398C164.368 18.7147 165.218 18.5022 166.318 18.5022C167.543 18.5022 168.481 18.7522 169.131 19.2523C169.781 19.7523 170.131 20.3524 170.181 21.0524H174.869C174.794 18.9272 173.981 17.3146 172.431 16.2145C170.881 15.1144 168.856 14.5644 166.355 14.5644C164.755 14.5644 163.33 14.8144 162.08 15.3144C160.855 15.7895 159.892 16.502 159.192 17.4521C158.492 18.4022 158.142 19.5773 158.142 20.9774C158.142 22.7276 158.755 24.1277 159.98 25.1778C161.205 26.2278 162.955 26.8779 165.23 27.1279L167.03 27.3154C168.381 27.4404 169.331 27.703 169.881 28.103C170.456 28.503 170.743 29.0406 170.743 29.7156C170.743 30.4907 170.368 31.1033 169.618 31.5533C168.893 32.0033 167.906 32.2284 166.655 32.2284C165.155 32.2284 164.055 31.9408 163.355 31.3658C162.655 30.7907 162.268 30.1532 162.193 29.4531H157.505C157.58 31.5533 158.405 33.2034 159.98 34.4035Z" fill="#2F3233"/>
<path fill-rule="evenodd" clip-rule="evenodd" d="M22.811 0C10.3846 0 0.311035 10.0736 0.311035 22.5C0.311035 34.9264 10.3846 45 22.811 45C35.2374 45 45.311 34.9264 45.311 22.5C45.311 10.0736 35.2374 0 22.811 0ZM5.35629 22.5C5.35629 12.86 13.171 5.04525 22.811 5.04525C32.451 5.04525 40.2658 12.86 40.2658 22.5C40.2658 31.2977 33.757 38.5751 25.2922 39.7798V35.9296L29.7723 34.2757C32.3614 33.3199 34.081 30.8522 34.081 28.0922V20.5113C34.081 19.1181 32.9515 17.9887 31.5583 17.9887C30.1651 17.9887 29.0357 19.1181 29.0357 20.5113V28.0922C29.0357 28.7396 28.6324 29.3185 28.025 29.5427L25.2922 30.5515V10.5837C25.2922 9.19052 24.1628 8.0611 22.7696 8.0611C21.3764 8.0611 20.247 9.19052 20.247 10.5837V21.4075L17.5958 20.4288C16.9884 20.2046 16.5851 19.6257 16.5851 18.9784V15.7103C16.5851 14.3171 15.4557 13.1877 14.0625 13.1877C12.6692 13.1877 11.5398 14.3171 11.5398 15.7103V18.9784C11.5398 21.7383 13.2593 24.206 15.8485 25.1618L20.247 26.7856V39.7677C11.8226 38.5276 5.35629 31.2689 5.35629 22.5Z" fill="#2F3233"/>
</svg>
