<svg width="179" height="45" viewBox="0 0 179 45" fill="none" xmlns="http://www.w3.org/2000/svg">
<path d="M68.9071 12.4631V44.6335H61.0707V31.3896H48.8808V44.6335H41.0444V12.4631H48.8808V25.0655H61.0707V12.4631H68.9071Z" fill="#2F3233"/>
<path d="M76.6723 16.4042C75.2975 16.4042 74.1671 16.0071 73.2811 15.2127C72.4257 14.3879 71.9979 13.3797 71.9979 12.1882C71.9979 10.9661 72.4257 9.95793 73.2811 9.16359C74.1671 8.33871 75.2975 7.92627 76.6723 7.92627C78.0165 7.92627 79.1164 8.33871 79.9718 9.16359C80.8578 9.95793 81.3008 10.9661 81.3008 12.1882C81.3008 13.3797 80.8578 14.3879 79.9718 15.2127C79.1164 16.0071 78.0165 16.4042 76.6723 16.4042ZM80.5676 19.0622V44.6335H72.7312V19.0622H80.5676Z" fill="#2F3233"/>
<path d="M98.6656 37.9887V44.6335H94.6786C91.8374 44.6335 89.6224 43.9461 88.0337 42.5713C86.4451 41.166 85.6507 38.8899 85.6507 35.7431V25.5696H82.5345V19.0622H85.6507V12.8297H93.4871V19.0622H98.6197V25.5696H93.4871V35.8348C93.4871 36.5986 93.6704 37.1485 94.0371 37.4846C94.4037 37.8206 95.0147 37.9887 95.8701 37.9887H98.6656Z" fill="#2F3233"/>
<path d="M125.302 31.4354C125.302 32.1687 125.257 32.9324 125.165 33.7268H107.43C107.552 35.3154 108.056 36.5375 108.942 37.3929C109.859 38.2178 110.974 38.6302 112.288 38.6302C114.243 38.6302 115.602 37.8054 116.366 36.1556H124.707C124.279 37.8359 123.5 39.3482 122.369 40.6924C121.27 42.0367 119.88 43.0907 118.199 43.8545C116.519 44.6183 114.64 45.0002 112.563 45.0002C110.057 45.0002 107.827 44.4655 105.872 43.3962C103.917 42.3269 102.389 40.7994 101.289 38.8135C100.189 36.8277 99.6394 34.5058 99.6394 31.8479C99.6394 29.1899 100.174 26.868 101.243 24.8822C102.343 22.8964 103.871 21.3688 105.826 20.2995C107.781 19.2302 110.027 18.6956 112.563 18.6956C115.037 18.6956 117.237 19.2149 119.162 20.2537C121.086 21.2924 122.583 22.7742 123.653 24.6989C124.752 26.6236 125.302 28.8691 125.302 31.4354ZM117.283 29.3732C117.283 28.029 116.824 26.9597 115.908 26.1653C114.991 25.371 113.846 24.9738 112.471 24.9738C111.157 24.9738 110.042 25.3557 109.126 26.1195C108.24 26.8833 107.69 27.9679 107.476 29.3732H117.283Z" fill="#2F3233"/>
<path d="M126.045 31.8479C126.045 29.1899 126.58 26.868 127.649 24.8822C128.749 22.8964 130.261 21.3688 132.186 20.2995C134.141 19.2302 136.372 18.6956 138.877 18.6956C142.085 18.6956 144.758 19.5357 146.896 21.216C149.066 22.8964 150.486 25.2641 151.158 28.3192H142.818C142.115 26.3639 140.756 25.3863 138.739 25.3863C137.303 25.3863 136.158 25.9515 135.302 27.0819C134.447 28.1817 134.019 29.7704 134.019 31.8479C134.019 33.9253 134.447 35.5293 135.302 36.6597C136.158 37.7595 137.303 38.3095 138.739 38.3095C140.756 38.3095 142.115 37.3318 142.818 35.3765H151.158C150.486 38.3706 149.066 40.723 146.896 42.4339C144.727 44.1447 142.054 45.0002 138.877 45.0002C136.372 45.0002 134.141 44.4655 132.186 43.3962C130.261 42.3269 128.749 40.7994 127.649 38.8135C126.58 36.8277 126.045 34.5058 126.045 31.8479Z" fill="#2F3233"/>
<path d="M169.236 18.7872C172.169 18.7872 174.521 19.7649 176.293 21.7201C178.065 23.6449 178.951 26.3028 178.951 29.694V44.6335H171.16V30.748C171.16 29.0372 170.717 27.7082 169.831 26.7611C168.945 25.814 167.754 25.3405 166.257 25.3405C164.76 25.3405 163.568 25.814 162.682 26.7611C161.796 27.7082 161.353 29.0372 161.353 30.748V44.6335H153.517V10.7217H161.353V22.4992C162.148 21.3688 163.232 20.4675 164.607 19.7954C165.982 19.1233 167.525 18.7872 169.236 18.7872Z" fill="#2F3233"/>
<path d="M0.468751 27.8175L0.46875 0H9.74323L9.74324 14.2995C11.362 13.6747 13.121 13.3321 14.9601 13.3321C22.9635 13.3321 29.4515 19.8201 29.4515 27.8235V44.6335H20.177V27.8235C20.177 24.9422 17.8413 22.6066 14.9601 22.6066C12.0802 22.6066 9.74531 24.9402 9.74324 27.8196C9.74324 27.8209 9.74323 27.8222 9.74323 27.8235L9.74324 44.6335H0.468752L0.46875 27.8235C0.46875 27.8215 0.46875 27.8195 0.468751 27.8175Z" fill="#2F3233"/>
<path d="M20.177 9.27448V0H29.4515V9.27448L20.177 9.27448Z" fill="#2F3233"/>
</svg>
