<svg width="182" height="45" viewBox="0 0 182 45" fill="none" xmlns="http://www.w3.org/2000/svg">
<path fill-rule="evenodd" clip-rule="evenodd" d="M46.0268 20.7543C46.9135 24.9842 46.5033 28.9185 45.0704 32.1994L45.1463 32.1982C43.9178 35.5603 39.8316 42.5948 30.2109 44.612C29.8448 44.6888 29.4793 44.7496 29.1146 44.7953C28.1968 44.9302 27.2446 45 26.2618 45C14.8682 45 3.66568 35.6211 1.24027 24.0517C0.0849738 18.5408 1.12951 13.527 3.77167 9.78705C4.99891 7.42467 11.4375 1.69538 16.6334 0.582088C16.774 0.551953 16.9093 0.528332 17.0393 0.510962C18.4125 0.176537 19.8773 0 21.4193 0C32.6067 0 43.6238 9.29203 46.0268 20.7543ZM42.1103 19.7845C43.9968 28.7829 38.4031 36.0776 29.6165 36.0776C20.8299 36.0776 12.1778 28.7829 10.2913 19.7845C8.40489 10.786 13.9986 3.49137 22.7851 3.49137C31.5717 3.49137 40.2239 10.786 42.1103 19.7845ZM29.0805 31.0347C35.584 31.0347 39.7513 25.764 38.3882 19.2622C37.0252 12.7604 30.6481 7.4897 24.1445 7.4897C17.641 7.4897 13.4738 12.7604 14.8368 19.2622C16.1998 25.764 22.5769 31.0347 29.0805 31.0347ZM34.8738 18.7741C35.7289 22.8528 33.0437 26.1593 28.8764 26.1593C24.709 26.1593 20.6375 22.8528 19.7824 18.7741C18.9274 14.6954 21.6125 11.3889 25.7799 11.3889C29.9473 11.3889 34.0188 14.6954 34.8738 18.7741ZM31.0525 18.7742C31.4745 20.7872 30.1493 22.4191 28.0925 22.4191C26.0358 22.4191 24.0263 20.7872 23.6043 18.7742C23.1823 16.7612 24.5076 15.1293 26.5643 15.1293C28.6211 15.1293 30.6305 16.7612 31.0525 18.7742Z" fill="#2F3233"/>
<path d="M76.1738 32.8123C76.1738 33.0712 76.3837 33.2811 76.6425 33.2811H80.2059C80.4647 33.2811 80.6746 33.0712 80.6746 32.8123V15.6987H76.6425C76.3837 15.6987 76.1738 15.9086 76.1738 16.1674V32.8123Z" fill="#2F3233"/>
<path d="M76.3187 12.914C76.7505 13.3673 77.4089 13.594 78.2939 13.594C79.179 13.594 79.8266 13.3673 80.2367 12.914C80.6469 12.4391 80.8519 11.8563 80.8519 11.1655C80.8519 10.4315 80.6469 9.83789 80.2367 9.38457C79.8266 8.93125 79.179 8.70459 78.2939 8.70459C77.4089 8.70459 76.7505 8.93125 76.3187 9.38457C75.9086 9.83789 75.7035 10.4315 75.7035 11.1655C75.7035 11.8563 75.9086 12.4391 76.3187 12.914Z" fill="#2F3233"/>
<path fill-rule="evenodd" clip-rule="evenodd" d="M69.079 25.0565C67.6975 25.7041 66.0137 26.0279 64.0277 26.0279H60.4659V32.8123C60.4659 33.0712 60.256 33.2811 59.9971 33.2811H56.3367C56.0778 33.2811 55.8679 33.0712 55.8679 32.8123V9.95046C55.8679 9.69158 56.0778 9.48171 56.3367 9.48171H59.9971C60.0477 9.48171 60.0964 9.48973 60.1421 9.50455C60.1877 9.48973 60.2365 9.48171 60.287 9.48171H64.0277C66.0137 9.48171 67.6975 9.80551 69.079 10.4531C70.4821 11.1007 71.5507 12.0289 72.2846 13.2378C73.0186 14.4251 73.3856 15.839 73.3856 17.4796V17.9977C73.3856 19.6383 73.0186 21.063 72.2846 22.2719C71.5507 23.4591 70.4821 24.3874 69.079 25.0565ZM66.7476 14.0149C66.1216 13.648 65.3445 13.4645 64.4163 13.4645H60.4659V22.0452H64.4163C65.3445 22.0452 66.1216 21.8617 66.7476 21.4947C67.3952 21.1278 67.8809 20.6205 68.2047 19.9729C68.5501 19.3253 68.7228 18.5805 68.7228 17.7386C68.7228 16.8968 68.5501 16.152 68.2047 15.5044C67.8809 14.8568 67.3952 14.3603 66.7476 14.0149Z" fill="#2F3233"/>
<path d="M84.7115 33.2811C84.4526 33.2811 84.2428 33.0712 84.2428 32.8123V16.1674C84.2428 15.9086 84.4526 15.6987 84.7115 15.6987H87.3358C87.5947 15.6987 87.8046 15.9086 87.8046 16.1674V20.0315C87.9089 19.5805 88.0384 19.1616 88.1931 18.7748C88.668 17.5659 89.3696 16.6593 90.2978 16.0549C91.2476 15.4504 92.4241 15.1482 93.8273 15.1482H94.0215C96.1155 15.1482 97.7021 15.8282 98.7814 17.1882C99.8607 18.5266 100.4 20.5341 100.4 23.2109V32.8123C100.4 33.0712 100.191 33.2811 99.9317 33.2811H96.3683C96.1095 33.2811 95.8996 33.0712 95.8996 32.8123V22.8223C95.8996 21.743 95.5866 20.8687 94.9606 20.1995C94.3561 19.5303 93.5143 19.1957 92.4349 19.1957C91.334 19.1957 90.4381 19.5411 89.7474 20.2319C89.0782 20.9011 88.7436 21.8077 88.7436 22.9518V32.8123C88.7436 33.0712 88.5337 33.2811 88.2748 33.2811H84.7115Z" fill="#2F3233"/>
<path fill-rule="evenodd" clip-rule="evenodd" d="M117.187 25.0565C115.806 25.7041 114.122 26.0279 112.136 26.0279H108.574V32.8123C108.574 33.0712 108.365 33.2811 108.106 33.2811H104.445C104.186 33.2811 103.976 33.0712 103.976 32.8123V9.95046C103.976 9.69158 104.186 9.48171 104.445 9.48171H108.106C108.156 9.48171 108.205 9.48973 108.251 9.50455C108.296 9.48973 108.345 9.48171 108.396 9.48171H112.136C114.122 9.48171 115.806 9.80551 117.187 10.4531C118.591 11.1007 119.659 12.0289 120.393 13.2378C121.127 14.4251 121.494 15.839 121.494 17.4796V17.9977C121.494 19.6383 121.127 21.063 120.393 22.2719C119.659 23.4591 118.591 24.3874 117.187 25.0565ZM114.856 14.0149C114.23 13.648 113.453 13.4645 112.525 13.4645H108.574V22.0452H112.525C113.453 22.0452 114.23 21.8617 114.856 21.4947C115.504 21.1278 115.989 20.6205 116.313 19.9729C116.659 19.3253 116.831 18.5805 116.831 17.7386C116.831 16.8968 116.659 16.152 116.313 15.5044C115.989 14.8568 115.504 14.3603 114.856 14.0149Z" fill="#2F3233"/>
<path fill-rule="evenodd" clip-rule="evenodd" d="M131.512 33.8963C129.958 33.8963 128.587 33.6481 127.4 33.1516C126.213 32.6551 125.209 31.9859 124.388 31.144C123.568 30.2805 122.942 29.3091 122.51 28.2298C122.1 27.1505 121.895 26.0279 121.895 24.8623V24.1823C121.895 22.9734 122.111 21.8293 122.543 20.75C122.996 19.6491 123.633 18.6777 124.453 17.8358C125.295 16.9723 126.31 16.3031 127.497 15.8282C128.684 15.3317 130.023 15.0835 131.512 15.0835C133.002 15.0835 134.34 15.3317 135.527 15.8282C136.715 16.3031 137.718 16.9723 138.539 17.8358C139.38 18.6777 140.017 19.6491 140.449 20.75C140.881 21.8293 141.097 22.9734 141.097 24.1823V24.8623C141.097 26.0279 140.881 27.1505 140.449 28.2298C140.039 29.3091 139.424 30.2805 138.603 31.144C137.783 31.9859 136.779 32.6551 135.592 33.1516C134.405 33.6481 133.045 33.8963 131.512 33.8963ZM131.512 30.0431C132.613 30.0431 133.541 29.8056 134.297 29.3307C135.052 28.8342 135.624 28.1758 136.013 27.3555C136.402 26.5136 136.596 25.5638 136.596 24.5061C136.596 23.4267 136.391 22.4769 135.981 21.6566C135.592 20.8147 135.009 20.1564 134.232 19.6814C133.477 19.1849 132.57 18.9367 131.512 18.9367C130.454 18.9367 129.537 19.1849 128.76 19.6814C128.004 20.1564 127.421 20.8147 127.011 21.6566C126.601 22.4769 126.396 23.4267 126.396 24.5061C126.396 25.5638 126.59 26.5136 126.979 27.3555C127.389 28.1758 127.972 28.8342 128.727 29.3307C129.483 29.8056 130.411 30.0431 131.512 30.0431Z" fill="#2F3233"/>
<path d="M144.261 32.8123C144.261 33.0712 144.47 33.2811 144.729 33.2811H148.293C148.551 33.2811 148.761 33.0712 148.761 32.8123V15.6987H144.729C144.47 15.6987 144.261 15.9086 144.261 16.1674V32.8123Z" fill="#2F3233"/>
<path d="M144.405 12.914C144.837 13.3673 145.496 13.594 146.381 13.594C147.266 13.594 147.913 13.3673 148.323 12.914C148.734 12.4391 148.939 11.8563 148.939 11.1655C148.939 10.4315 148.734 9.83789 148.323 9.38457C147.913 8.93125 147.266 8.70459 146.381 8.70459C145.496 8.70459 144.837 8.93125 144.405 9.38457C143.995 9.83789 143.79 10.4315 143.79 11.1655C143.79 11.8563 143.995 12.4391 144.405 12.914Z" fill="#2F3233"/>
<path d="M152.798 33.2811C152.539 33.2811 152.329 33.0712 152.329 32.8123V16.1674C152.329 15.9086 152.539 15.6987 152.798 15.6987H155.423C155.681 15.6987 155.891 15.9086 155.891 16.1674V20.0315C155.996 19.5805 156.125 19.1616 156.28 18.7748C156.755 17.5659 157.456 16.6593 158.385 16.0549C159.334 15.4504 160.511 15.1482 161.914 15.1482H162.108C164.202 15.1482 165.789 15.8282 166.868 17.1882C167.947 18.5266 168.487 20.5341 168.487 23.2109V32.8123C168.487 33.0712 168.277 33.2811 168.018 33.2811H164.455C164.196 33.2811 163.986 33.0712 163.986 32.8123V22.8223C163.986 21.743 163.673 20.8687 163.047 20.1995C162.443 19.5303 161.601 19.1957 160.522 19.1957C159.421 19.1957 158.525 19.5411 157.834 20.2319C157.165 20.9011 156.83 21.8077 156.83 22.9518V32.8123C156.83 33.0712 156.62 33.2811 156.362 33.2811H152.798Z" fill="#2F3233"/>
<path d="M175.334 32.8925C176.391 33.3027 177.73 33.5077 179.349 33.5077H181.406C181.664 33.5077 181.874 33.2979 181.874 33.039V30.1233C181.874 29.8644 181.664 29.6545 181.406 29.6545H179.122C178.259 29.6545 177.589 29.4279 177.114 28.9745C176.661 28.4996 176.434 27.8304 176.434 26.967L176.45 19.0015H181.406C181.664 19.0015 181.874 18.7916 181.874 18.5327V16.1674C181.874 15.9086 181.664 15.6987 181.406 15.6987H176.457L176.466 11.2142C176.466 10.955 176.256 10.7445 175.997 10.7445H172.725C172.467 10.7445 172.257 10.9538 172.256 11.2123L172.247 15.6987H169.909C169.65 15.6987 169.44 15.9086 169.44 16.1674V18.5327C169.44 18.7916 169.65 19.0015 169.909 19.0015H172.241L172.225 26.6755C172.225 28.3809 172.484 29.7409 173.002 30.7554C173.52 31.7484 174.297 32.4608 175.334 32.8925Z" fill="#2F3233"/>
</svg>
