<svg width="173" height="45" viewBox="0 0 173 45" fill="none" xmlns="http://www.w3.org/2000/svg">
<path d="M22.7935 0L0.293457 27H20.5435L18.2935 45L40.7935 18H20.5435L22.7935 0Z" fill="#2F3233"/>
<path d="M72.648 18.8207V27.1495H60.6342V38.5576H51.1948V4.7373H75.1719V13.0662H60.6342V18.8207H72.648Z" fill="#2F3233"/>
<path d="M88.3365 4.7373V38.5576H79.6543V4.7373H88.3365Z" fill="#2F3233"/>
<path d="M102.662 12.0566C104.008 12.0566 105.321 12.3595 106.599 12.9652C107.912 13.5373 108.989 14.2776 109.83 15.1862V12.8138H118.512V38.5576H109.83V34.2669C109.191 35.6803 108.215 36.875 106.902 37.8509C105.59 38.8268 104.008 39.3147 102.157 39.3147C100.239 39.3147 98.4388 38.8268 96.7562 37.8509C95.0736 36.875 93.6939 35.3774 92.6171 33.3583C91.5738 31.3056 91.0522 28.7312 91.0522 25.6352C91.0522 22.7411 91.5738 20.2845 92.6171 18.2654C93.6939 16.2463 95.1073 14.7151 96.8572 13.6719C98.6408 12.595 100.576 12.0566 102.662 12.0566ZM104.479 20.5369C103.234 20.5369 102.191 21.0417 101.35 22.0513C100.542 23.0608 100.138 24.2555 100.138 25.6352C100.138 27.0149 100.559 28.1759 101.4 29.1182C102.242 30.0604 103.352 30.5316 104.732 30.5316C105.472 30.5316 106.229 30.3465 107.003 29.9763C107.777 29.5725 108.433 28.9836 108.972 28.2096C109.544 27.4019 109.83 26.3755 109.83 25.1304V22.657C109.09 22.0513 108.248 21.5465 107.306 21.1426C106.398 20.7388 105.455 20.5369 104.479 20.5369Z" fill="#2F3233"/>
<path d="M131.98 12.0566C133.662 12.0566 135.21 12.309 136.624 12.8138C138.071 13.2849 139.232 13.9411 140.107 14.7824V21.597C139.232 21.0585 138.239 20.5537 137.129 20.0826C136.018 19.5778 134.823 19.3254 133.545 19.3254C132.737 19.3254 132.013 19.4937 131.374 19.8302C130.768 20.1331 130.465 20.621 130.465 21.2941C130.465 21.7652 130.651 22.1186 131.021 22.3541C131.391 22.5897 132.114 22.8421 133.191 23.1113L134.756 23.5151C139.232 24.6593 141.47 27.0654 141.47 30.7335C141.47 32.4161 140.965 33.9136 139.955 35.226C138.979 36.5048 137.684 37.5143 136.068 38.2547C134.487 38.9614 132.771 39.3147 130.92 39.3147C129.002 39.3147 127.218 39.0455 125.569 38.5071C123.92 37.935 122.507 37.2451 121.329 36.4375V29.6734C122.54 30.4138 123.903 31.0363 125.418 31.5411C126.966 32.0459 128.345 32.2983 129.557 32.2983C130.533 32.2983 131.239 32.1805 131.677 31.9449C132.148 31.7094 132.384 31.2887 132.384 30.683C132.384 30.2119 132.114 29.8585 131.576 29.623C131.038 29.3537 130.264 29.0509 129.254 28.7143L126.68 27.9067C124.795 27.3346 123.415 26.4428 122.54 25.2314C121.665 23.9862 121.228 22.4719 121.228 20.6883C121.228 18.9048 121.699 17.3736 122.641 16.0949C123.584 14.8161 124.862 13.8233 126.478 13.1166C128.127 12.41 129.961 12.0566 131.98 12.0566Z" fill="#2F3233"/>
<path d="M159.379 12.0566C162.004 12.0566 164.141 12.9484 165.79 14.7319C167.473 16.5155 168.314 19.1572 168.314 22.657V38.5576H159.632L159.581 24.0199C159.581 22.7411 159.228 21.8493 158.521 21.3446C157.814 20.8061 157.024 20.5369 156.149 20.5369C155.206 20.5369 154.416 20.7893 153.776 21.2941C153.137 21.7652 152.582 22.3373 152.11 23.0103V38.5576H143.428V4.7373H152.11V16.1453C152.918 15.0348 153.894 14.0757 155.038 13.2681C156.216 12.4604 157.663 12.0566 159.379 12.0566Z" fill="#2F3233"/>
<path d="M167.877 4.93423V6.00824H166.584V9.27584H165.356V6.00824H164.063V4.93423H167.877Z" fill="#2F3233"/>
<path d="M172.916 4.86914V9.29537H171.689V7.14735L170.789 8.15627H170.422L169.523 7.14735V9.29537H168.295V4.86914H168.729L170.606 6.7568L172.483 4.86914H172.916Z" fill="#2F3233"/>
</svg>
