<svg width="147" height="45" viewBox="0 0 147 45" fill="none" xmlns="http://www.w3.org/2000/svg">
<path fill-rule="evenodd" clip-rule="evenodd" d="M23.3086 45C35.735 45 45.8086 34.9264 45.8086 22.5C45.8086 10.0736 35.735 0 23.3086 0C10.8822 0 0.808594 10.0736 0.808594 22.5C0.808594 34.9264 10.8822 45 23.3086 45ZM24.8325 10.6762C26.6902 9.84111 28.8247 9.88384 30.6475 10.7926C33.3444 12.1371 33.2882 16.0043 30.5534 17.2699L24.4859 20.0776C23.9065 20.3457 23.2362 20.3333 22.6671 20.0441L16.9632 17.1456C16.3702 16.8443 15.6453 17.0807 15.344 17.6737C15.0427 18.2666 15.2791 18.9916 15.872 19.2929L22.4772 22.6494C23.1352 22.9837 23.9101 22.998 24.5799 22.688L31.5649 19.4558C36.1328 17.342 36.2267 10.8827 31.7222 8.63702C29.2529 7.406 26.3615 7.34812 23.845 8.47932L11.4342 14.058C10.5694 14.4468 10.0131 15.3067 10.0131 16.2549V20.2173C10.0131 21.1307 10.5297 21.9654 11.3471 22.3729L22.4691 27.9177C23.1459 28.2551 23.9417 28.2551 24.6184 27.9177L33.567 23.4565C34.0722 23.2047 34.6659 23.5721 34.6659 24.1365C34.6659 24.4247 34.5029 24.688 34.245 24.8166L24.4733 29.6882C23.888 29.98 23.1996 29.98 22.6143 29.6882L13.4963 25.1425C11.895 24.3442 10.0131 25.5088 10.0131 27.2981V29.4351C10.0131 30.3484 10.5297 31.1832 11.3471 31.5907L22.4732 37.1375C23.1453 37.4726 23.9353 37.475 24.6094 37.144L33.1267 32.9623C33.7238 32.6692 33.9701 31.9476 33.677 31.3505C33.3839 30.7535 32.6623 30.5071 32.0652 30.8002L24.4731 34.5277C23.89 34.814 23.2068 34.8119 22.6254 34.5221L12.9513 29.6991C12.6268 29.5374 12.4217 29.2059 12.4217 28.8433C12.4217 28.133 13.1689 27.6706 13.8046 27.9875L22.4691 32.3071C23.1459 32.6445 23.9417 32.6445 24.6184 32.3071L35.7405 26.7623C36.5579 26.3548 37.0745 25.5201 37.0745 24.6068V22.9087C37.0745 21.1194 35.1925 19.9548 33.5912 20.7531L24.4733 25.2987C23.888 25.5905 23.1996 25.5905 22.6143 25.2987L13.5755 20.7926C12.8685 20.4401 12.4217 19.7181 12.4217 18.9281V17.6026C12.4217 16.7824 12.9029 16.0386 13.6509 15.7024L24.8325 10.6762Z" fill="#2F3233"/>
<path d="M59.8707 16.048V20.8448H66.3122V23.8874H59.8707V28.9584H67.1345V32.0832H56.0332V12.9232H67.1345V16.048H59.8707Z" fill="#2F3233"/>
<path d="M73.363 19.118C73.8564 18.387 74.5325 17.7931 75.3914 17.3363C76.2685 16.8794 77.2644 16.651 78.3791 16.651C79.6766 16.651 80.8461 16.9708 81.8877 17.6104C82.9476 18.25 83.779 19.1637 84.3821 20.3514C85.0034 21.521 85.314 22.8824 85.314 24.4356C85.314 25.9889 85.0034 27.3686 84.3821 28.5747C83.779 29.7625 82.9476 30.6853 81.8877 31.3431C80.8461 32.001 79.6766 32.3299 78.3791 32.3299C77.2461 32.3299 76.2502 32.1106 75.3914 31.6721C74.5508 31.2152 73.8746 30.6305 73.363 29.9178V32.0832H69.5255V11.7993H73.363V19.118ZM81.3943 24.4356C81.3943 23.522 81.2024 22.7362 80.8187 22.0783C80.4532 21.4022 79.9598 20.8905 79.3385 20.5433C78.7355 20.1961 78.0776 20.0225 77.3649 20.0225C76.6705 20.0225 76.0127 20.2053 75.3914 20.5707C74.7883 20.9179 74.2949 21.4296 73.9112 22.1057C73.5457 22.7819 73.363 23.5768 73.363 24.4905C73.363 25.4042 73.5457 26.1991 73.9112 26.8752C74.2949 27.5513 74.7883 28.0721 75.3914 28.4376C76.0127 28.7848 76.6705 28.9584 77.3649 28.9584C78.0776 28.9584 78.7355 28.7757 79.3385 28.4102C79.9598 28.0447 80.4532 27.5239 80.8187 26.8478C81.2024 26.1717 81.3943 25.3676 81.3943 24.4356Z" fill="#2F3233"/>
<path d="M93.7492 32.3299C92.2873 32.3299 90.9716 32.0101 89.8021 31.3705C88.6326 30.7127 87.7097 29.7899 87.0336 28.6021C86.3758 27.4143 86.0468 26.0437 86.0468 24.4905C86.0468 22.9372 86.3849 21.5667 87.061 20.3789C87.7554 19.1911 88.6965 18.2774 89.8843 17.6378C91.0721 16.9799 92.397 16.651 93.8589 16.651C95.3208 16.651 96.6456 16.9799 97.8334 17.6378C99.0212 18.2774 99.9532 19.1911 100.629 20.3789C101.324 21.5667 101.671 22.9372 101.671 24.4905C101.671 26.0437 101.315 27.4143 100.602 28.6021C99.9075 29.7899 98.9573 30.7127 97.7512 31.3705C96.5634 32.0101 95.2294 32.3299 93.7492 32.3299ZM93.7492 28.9858C94.4436 28.9858 95.0924 28.8214 95.6954 28.4924C96.3167 28.1452 96.8101 27.6336 97.1756 26.9574C97.541 26.2813 97.7238 25.459 97.7238 24.4905C97.7238 23.0468 97.34 21.9413 96.5725 21.1738C95.8233 20.388 94.9005 19.9951 93.8041 19.9951C92.7076 19.9951 91.7848 20.388 91.0356 21.1738C90.3046 21.9413 89.9392 23.0468 89.9392 24.4905C89.9392 25.9341 90.2955 27.0488 91.0082 27.8346C91.7391 28.6021 92.6528 28.9858 93.7492 28.9858Z" fill="#2F3233"/>
<path d="M110.132 32.3299C108.671 32.3299 107.355 32.0101 106.185 31.3705C105.016 30.7127 104.093 29.7899 103.417 28.6021C102.759 27.4143 102.43 26.0437 102.43 24.4905C102.43 22.9372 102.768 21.5667 103.444 20.3789C104.139 19.1911 105.08 18.2774 106.268 17.6378C107.455 16.9799 108.78 16.651 110.242 16.651C111.704 16.651 113.029 16.9799 114.217 17.6378C115.404 18.2774 116.336 19.1911 117.013 20.3789C117.707 21.5667 118.054 22.9372 118.054 24.4905C118.054 26.0437 117.698 27.4143 116.985 28.6021C116.291 29.7899 115.341 30.7127 114.134 31.3705C112.947 32.0101 111.613 32.3299 110.132 32.3299ZM110.132 28.9858C110.827 28.9858 111.476 28.8214 112.079 28.4924C112.7 28.1452 113.193 27.6336 113.559 26.9574C113.924 26.2813 114.107 25.459 114.107 24.4905C114.107 23.0468 113.723 21.9413 112.956 21.1738C112.207 20.388 111.284 19.9951 110.187 19.9951C109.091 19.9951 108.168 20.388 107.419 21.1738C106.688 21.9413 106.322 23.0468 106.322 24.4905C106.322 25.9341 106.679 27.0488 107.391 27.8346C108.122 28.6021 109.036 28.9858 110.132 28.9858Z" fill="#2F3233"/>
<path d="M128.763 32.0832L123.61 25.6143V32.0832H119.773V11.7993H123.61V23.3392L128.709 16.8977H133.697L127.009 24.5179L133.752 32.0832H128.763Z" fill="#2F3233"/>
<path d="M140.495 32.3299C139.252 32.3299 138.137 32.1106 137.151 31.6721C136.164 31.2152 135.378 30.603 134.793 29.8355C134.227 29.068 133.916 28.2183 133.861 27.2864H137.726C137.799 27.8711 138.083 28.3554 138.576 28.7391C139.088 29.1229 139.718 29.3147 140.467 29.3147C141.198 29.3147 141.765 29.1686 142.167 28.8762C142.587 28.5838 142.797 28.2092 142.797 27.7523C142.797 27.2589 142.541 26.8935 142.03 26.6559C141.536 26.4001 140.741 26.126 139.645 25.8336C138.512 25.5595 137.58 25.2762 136.849 24.9839C136.136 24.6915 135.515 24.2438 134.985 23.6407C134.474 23.0377 134.218 22.2245 134.218 21.2012C134.218 20.3606 134.455 19.5931 134.93 18.8987C135.424 18.2043 136.118 17.6561 137.014 17.254C137.927 16.852 138.996 16.651 140.221 16.651C142.03 16.651 143.473 17.1079 144.552 18.0215C145.63 18.917 146.224 20.1322 146.333 21.6672H142.66C142.605 21.0641 142.35 20.589 141.893 20.2418C141.454 19.8763 140.86 19.6936 140.111 19.6936C139.417 19.6936 138.878 19.8215 138.494 20.0773C138.128 20.3332 137.946 20.6895 137.946 21.1464C137.946 21.658 138.201 22.0509 138.713 22.325C139.225 22.5809 140.02 22.8458 141.098 23.1199C142.194 23.394 143.099 23.6773 143.811 23.9697C144.524 24.262 145.136 24.7189 145.648 25.3402C146.178 25.9432 146.452 26.7473 146.47 27.7523C146.47 28.6295 146.224 29.4153 145.73 30.1097C145.255 30.8041 144.561 31.3523 143.647 31.7543C142.752 32.138 141.701 32.3299 140.495 32.3299Z" fill="#2F3233"/>
</svg>
