<svg xmlns="http://www.w3.org/2000/svg" viewBox="0 0 718.91 722.27"><defs><style>.cls-1{fill:#f3ff6f;}</style></defs><g id="Layer_2" data-name="Layer 2"><g id="Layer_1-2" data-name="Layer 1"><circle class="cls-1" cx="361.6" cy="360.47" r="233.37"/><path d="M361.6,137.1a222.64,222.64,0,1,1-87,17.55,221.85,221.85,0,0,1,87-17.55m0-10c-128.89,0-233.38,104.48-233.38,233.37S232.71,593.85,361.6,593.85,595,489.36,595,360.47,490.48,127.1,361.6,127.1Z"/><path d="M135.28,148.54,159.18,173l-7.76,7.57L91.84,119.54l19.8-19.32a37.06,37.06,0,0,1,9-6.29,27.38,27.38,0,0,1,9.88-2.75,23.15,23.15,0,0,1,9.95,1.42,25.13,25.13,0,0,1,9.22,6.23,24.8,24.8,0,0,1,6,9.35,23.15,23.15,0,0,1,1.16,10,27.35,27.35,0,0,1-3,9.81,35.74,35.74,0,0,1-6.55,8.84Zm-6.22-6.38,12-11.74a21.22,21.22,0,0,0,4.11-5.69,16.58,16.58,0,0,0,1.67-6.17,14.62,14.62,0,0,0-1-6.23,17.18,17.18,0,0,0-3.86-5.85,17.86,17.86,0,0,0-5.82-4.07,15.33,15.33,0,0,0-6.28-1.24,16.07,16.07,0,0,0-6.27,1.46,20.88,20.88,0,0,0-5.83,4l-12,11.74Z"/><path d="M206.8,91.45l-14.71,8.63,17.62,30-9.3,5.46L157.23,62l21.58-12.66a42,42,0,0,1,10.56-4.23,27.12,27.12,0,0,1,10.36-.58,22.24,22.24,0,0,1,9.38,3.7,26,26,0,0,1,7.62,8.54A22.59,22.59,0,0,1,219.87,71a24.4,24.4,0,0,1-1.82,6.85,33.3,33.3,0,0,1-3.69,6.44l34.06,22.27.3.64L238.87,113Zm-19.21,1,12.53-7.35a22.37,22.37,0,0,0,5.33-4.46A17,17,0,0,0,208.74,75a14.71,14.71,0,0,0,.78-6.27,15.74,15.74,0,0,0-2.25-6.6,17.75,17.75,0,0,0-4.79-5.5,14.14,14.14,0,0,0-5.84-2.55,16,16,0,0,0-6.52.19,24.85,24.85,0,0,0-6.8,2.7L171,64.21Z"/><path d="M301.43,51.57a65.47,65.47,0,0,1,1.85,9.08,50.69,50.69,0,0,1,.37,9.27,39.15,39.15,0,0,1-1.45,8.85,29,29,0,0,1-3.57,7.9,25.35,25.35,0,0,1-6,6.37,28.95,28.95,0,0,1-18.27,5.37,25.12,25.12,0,0,1-8.47-2.11,29.51,29.51,0,0,1-7.32-4.72,40.72,40.72,0,0,1-6.08-6.67,51.14,51.14,0,0,1-4.76-8,62.46,62.46,0,0,1-3.38-8.59L241.63,59A65.33,65.33,0,0,1,239.78,50a49.86,49.86,0,0,1-.34-9.28,40.88,40.88,0,0,1,1.47-8.89,29.54,29.54,0,0,1,3.55-7.95,25,25,0,0,1,6-6.4,26.62,26.62,0,0,1,8.68-4.23,26.89,26.89,0,0,1,9.62-1.16,25.29,25.29,0,0,1,8.5,2.11,28.88,28.88,0,0,1,7.28,4.73,41.6,41.6,0,0,1,6.06,6.68,49.1,49.1,0,0,1,4.74,8,64.38,64.38,0,0,1,3.37,8.65Zm-13.07-6.41q-.92-2.91-2.18-6a45.59,45.59,0,0,0-3-6,35.27,35.27,0,0,0-3.92-5.32,20.35,20.35,0,0,0-4.84-4,15.27,15.27,0,0,0-12.57-1.4,15.47,15.47,0,0,0-6,3.16,16.22,16.22,0,0,0-3.76,4.87,20.18,20.18,0,0,0-1.9,6,35.27,35.27,0,0,0-.41,6.6,47.42,47.42,0,0,0,.67,6.64c.38,2.19.83,4.24,1.36,6.17l2.78,9.44c.6,1.9,1.33,3.88,2.21,6a43.58,43.58,0,0,0,3.07,6,36.87,36.87,0,0,0,3.95,5.34,20.07,20.07,0,0,0,4.86,4,16,16,0,0,0,5.79,2,15.55,15.55,0,0,0,6.79-.59,15.3,15.3,0,0,0,9.82-8,20.33,20.33,0,0,0,1.84-6,36.89,36.89,0,0,0,.38-6.59,41.14,41.14,0,0,0-.74-6.65q-.63-3.3-1.43-6.24Z"/><path d="M323.63,86.34,320,1.11,345.32,0A42.28,42.28,0,0,1,355.68,1a27.58,27.58,0,0,1,9.13,3.68,20.59,20.59,0,0,1,6.57,6.75,20.67,20.67,0,0,1,2.72,10.15,18.34,18.34,0,0,1-.82,6.14,17.45,17.45,0,0,1-2.6,5.06,19.64,19.64,0,0,1-4,4,31,31,0,0,1-5,3A23.19,23.19,0,0,1,368,42.36a20,20,0,0,1,8.53,10,21.62,21.62,0,0,1,1.44,7A22.28,22.28,0,0,1,376.18,70a22.86,22.86,0,0,1-5.93,7.91A28.8,28.8,0,0,1,361.4,83a35.5,35.5,0,0,1-10.49,2.15ZM332.42,37l15.1-.65a21.89,21.89,0,0,0,5.93-1.22,16.92,16.92,0,0,0,5.1-2.86,13.71,13.71,0,0,0,3.51-4.41A11.91,11.91,0,0,0,363.21,22a12.52,12.52,0,0,0-1.64-6,12,12,0,0,0-3.86-4,16.32,16.32,0,0,0-5.43-2.14,26.89,26.89,0,0,0-6.21-.55l-14.82.63Zm.39,9,1.31,30.68L350.81,76a20.23,20.23,0,0,0,6.39-1.42,17.7,17.7,0,0,0,5.25-3.24A14.13,14.13,0,0,0,366,66.4a14.46,14.46,0,0,0,1.1-6.44,15,15,0,0,0-1.48-6.38A13.86,13.86,0,0,0,361.9,49a15.68,15.68,0,0,0-5.33-2.79,21.71,21.71,0,0,0-6.49-.89Z"/><path d="M404.74,78.7l40.9,8.23-1.82,9L392.29,85.58,409.13,1.94l10.62,2.14Z"/><path d="M515.61,84.92,483.43,69.63l-13,27.31L508,114.77,504,123.08,456.72,100.6l36.6-77.06,46.85,22.25-4,8.36-37.05-17.6L487.38,61.32l32.18,15.29Z"/><path d="M579.35,72.45l-16.29,41.8L601.7,90.76l10.42,8.54-54.07,66-8.15-6.68,21.57-26.34,23.26-27-41.31,25.55-4.8-3.94,17.14-43.75-21.12,27.16-21.57,26.33-8.16-6.68L569,64Z"/><path d="M610.84,197.74a11.81,11.81,0,0,0,4.23-5.4,16.14,16.14,0,0,0,.88-6.4,30.5,30.5,0,0,0-1.24-6.79c-.69-2.29-1.39-4.47-2.1-6.52-1-3-1.91-6.14-2.68-9.45a39.87,39.87,0,0,1-1.06-9.82,25.6,25.6,0,0,1,1.9-9.25,18.28,18.28,0,0,1,6.21-7.69,19.86,19.86,0,0,1,9.34-3.95,23.77,23.77,0,0,1,9.68.7,28.82,28.82,0,0,1,9,4.41,33.65,33.65,0,0,1,7.24,7.1,31.32,31.32,0,0,1,4.95,9.69,29.5,29.5,0,0,1,1.32,10.42,25.44,25.44,0,0,1-2.64,10,24.27,24.27,0,0,1-7,8.37l-6.67-8.91a23.71,23.71,0,0,0,4.28-5.48,16.64,16.64,0,0,0,2-6,15.61,15.61,0,0,0-.48-6.27,19,19,0,0,0-3.2-6.28,21,21,0,0,0-4.34-4.33,16.12,16.12,0,0,0-5.27-2.64,13.28,13.28,0,0,0-5.68-.36,12.49,12.49,0,0,0-5.61,2.48,10.73,10.73,0,0,0-3.87,5.24,16,16,0,0,0-.69,6.26,30.18,30.18,0,0,0,1.27,6.59q1,3.31,2,6.13c.73,2.09,1.41,4.24,2,6.47a52.29,52.29,0,0,1,1.4,6.71,38.56,38.56,0,0,1,.38,6.67,24.6,24.6,0,0,1-1,6.4,21.3,21.3,0,0,1-2.79,5.86,21,21,0,0,1-4.91,5,19.13,19.13,0,0,1-9.54,4,23,23,0,0,1-9.65-1,29.53,29.53,0,0,1-8.9-4.75,37,37,0,0,1-7.26-7.31,35.75,35.75,0,0,1-5.26-10,31.86,31.86,0,0,1-1.79-10.85,26.31,26.31,0,0,1,2.28-10.45,23.1,23.1,0,0,1,7-8.81l6.63,8.87a20.79,20.79,0,0,0-4.35,6,17.15,17.15,0,0,0-1.65,6.5,17.72,17.72,0,0,0,1,6.7,23.6,23.6,0,0,0,3.53,6.53,25,25,0,0,0,4.38,4.53,17.06,17.06,0,0,0,5.25,2.91,13.52,13.52,0,0,0,5.73.61A11.6,11.6,0,0,0,610.84,197.74Z"/><path d="M656.43,316.65l-12.22-50.88,9.12-2.19,12.22,50.88ZM680.07,311l-12.21-50.88,9.17-2.2,12.22,50.88Z"/><path d="M665.43,442.39a65,65,0,0,1-9-2.32,50.46,50.46,0,0,1-8.49-3.73,39.28,39.28,0,0,1-7.32-5.19,29.28,29.28,0,0,1-5.53-6.67,25.34,25.34,0,0,1-3.1-8.16,28.93,28.93,0,0,1,3.18-18.78,25.19,25.19,0,0,1,5.62-6.68,29.22,29.22,0,0,1,7.45-4.51,41.17,41.17,0,0,1,8.66-2.54,50.52,50.52,0,0,1,9.23-.78,60.85,60.85,0,0,1,9.2.72l9.59,1.63a65,65,0,0,1,9,2.32,48.57,48.57,0,0,1,8.48,3.76,41.31,41.31,0,0,1,7.35,5.22,29.3,29.3,0,0,1,5.58,6.68,24.87,24.87,0,0,1,3.14,8.17,28.93,28.93,0,0,1-3.19,18.8,25.25,25.25,0,0,1-5.62,6.72,29,29,0,0,1-7.45,4.47,41.65,41.65,0,0,1-8.65,2.52,50,50,0,0,1-9.28.74A65.23,65.23,0,0,1,675,444Zm11.49-8.93c2,.3,4.13.52,6.34.66a43.71,43.71,0,0,0,6.67-.09,35,35,0,0,0,6.5-1.18,20.46,20.46,0,0,0,5.73-2.6,15.69,15.69,0,0,0,4.36-4.31,15.93,15.93,0,0,0,2.41-6.37,15.32,15.32,0,0,0-.22-6.75,16.05,16.05,0,0,0-2.72-5.51,20.46,20.46,0,0,0-4.55-4.34,35.56,35.56,0,0,0-5.75-3.26,47.15,47.15,0,0,0-6.27-2.31c-2.13-.62-4.18-1.12-6.13-1.49l-9.71-1.64c-2-.3-4.07-.5-6.31-.63a44.21,44.21,0,0,0-6.71.15A36.62,36.62,0,0,0,654,395a19.91,19.91,0,0,0-5.75,2.59,16.17,16.17,0,0,0-4.39,4.3,16,16,0,0,0,.49,18.72,20.28,20.28,0,0,0,4.56,4.28,37,37,0,0,0,5.75,3.23,43.12,43.12,0,0,0,6.31,2.26c2.16.58,4.23,1.06,6.23,1.44Z"/><path d="M651,471.76,619.67,458l4.35-9.93,78.15,34.21-11.09,25.33a36.49,36.49,0,0,1-6,9.23,27.37,27.37,0,0,1-8.12,6.27,23.16,23.16,0,0,1-9.75,2.41,27.33,27.33,0,0,1-19.94-8.73,23.18,23.18,0,0,1-4.82-8.79,27.24,27.24,0,0,1-.9-10.21,35.46,35.46,0,0,1,2.75-10.67Zm8.16,3.57-6.74,15.4a21.23,21.23,0,0,0-1.68,6.82,16.52,16.52,0,0,0,.77,6.35,14.75,14.75,0,0,0,3.23,5.41,17,17,0,0,0,5.78,4,17.85,17.85,0,0,0,6.92,1.59,15.3,15.3,0,0,0,6.28-1.22A16,16,0,0,0,679,510a20.9,20.9,0,0,0,3.91-5.87l6.75-15.41Z"/><path d="M615.68,538.13l-27.12-20.87,6.61-8.59,67.61,52-16.87,21.92a36.64,36.64,0,0,1-8.07,7.51,27.38,27.38,0,0,1-9.38,4.12,23.18,23.18,0,0,1-10.05,0A27.34,27.34,0,0,1,601.16,581a23.16,23.16,0,0,1-2.56-9.69,27.43,27.43,0,0,1,1.58-10.13,35.75,35.75,0,0,1,5.24-9.69Zm7.05,5.43-10.25,13.33a21.38,21.38,0,0,0-3.27,6.21,16.64,16.64,0,0,0-.78,6.35,14.66,14.66,0,0,0,1.83,6,17.1,17.1,0,0,0,4.65,5.24,17.74,17.74,0,0,0,6.33,3.21,15.31,15.31,0,0,0,6.4.34,16,16,0,0,0,6-2.33,21,21,0,0,0,5.21-4.75l10.26-13.33Z"/><path d="M533.47,624a65.81,65.81,0,0,1-5.14-7.71,51.11,51.11,0,0,1-3.84-8.44,39.37,39.37,0,0,1-2-8.75,29.15,29.15,0,0,1,.33-8.66,25.05,25.05,0,0,1,3.13-8.15,29,29,0,0,1,14.89-11.87,25.42,25.42,0,0,1,8.65-1.23,29.29,29.29,0,0,1,8.55,1.61,40.23,40.23,0,0,1,8.15,3.88,51.36,51.36,0,0,1,7.4,5.57A60.69,60.69,0,0,1,580,587l6.07,7.61a62.94,62.94,0,0,1,5.13,7.71,49.5,49.5,0,0,1,3.82,8.45,42.18,42.18,0,0,1,2,8.8,29.43,29.43,0,0,1-.3,8.7,24.72,24.72,0,0,1-3.11,8.17,26.5,26.5,0,0,1-6.44,7.2,27,27,0,0,1-8.47,4.69,24.87,24.87,0,0,1-8.67,1.25,28.5,28.5,0,0,1-8.53-1.63,41,41,0,0,1-8.13-3.9,48.92,48.92,0,0,1-7.41-5.63,65.18,65.18,0,0,1-6.39-6.74Zm14.52,1q1.93,2.34,4.28,4.71a44.72,44.72,0,0,0,5,4.38,34,34,0,0,0,5.64,3.45,20.3,20.3,0,0,0,6,1.89A15.24,15.24,0,0,0,581.1,636a15.36,15.36,0,0,0,4.34-5.18,16.05,16.05,0,0,0,1.65-5.92,20.62,20.62,0,0,0-.5-6.27,35.31,35.31,0,0,0-2.11-6.27,46.66,46.66,0,0,0-3.13-5.89c-1.17-1.89-2.37-3.62-3.58-5.2l-6.14-7.7c-1.27-1.54-2.7-3.09-4.28-4.68a45.22,45.22,0,0,0-5.1-4.37,37.65,37.65,0,0,0-5.67-3.45,20.07,20.07,0,0,0-6-1.91,16.12,16.12,0,0,0-6.14.29,15.49,15.49,0,0,0-6.07,3.11,15.3,15.3,0,0,0-6.05,11.15,20.23,20.23,0,0,0,.55,6.24,36.49,36.49,0,0,0,2.13,6.24,42.37,42.37,0,0,0,3.19,5.89q1.83,2.8,3.68,5.23Z"/><path d="M488.52,643.71,504,636.6,489.52,605l9.8-4.49L534.87,678l-22.75,10.43a41.93,41.93,0,0,1-10.93,3.14,27,27,0,0,1-10.37-.47,22.1,22.1,0,0,1-9-4.63,26,26,0,0,1-6.72-9.26,22.63,22.63,0,0,1-1.69-14.5A24.64,24.64,0,0,1,476,656.1a32.18,32.18,0,0,1,4.32-6l-31.64-25.59-.24-.66,10.38-4.76Zm19.21,1-13.21,6a22.49,22.49,0,0,0-5.75,3.9,16.91,16.91,0,0,0-3.84,5.2,14.82,14.82,0,0,0-1.4,6.16,15.69,15.69,0,0,0,1.57,6.79,17.68,17.68,0,0,0,4.21,6,14.21,14.21,0,0,0,5.56,3.12,15.94,15.94,0,0,0,6.5.47,24.71,24.71,0,0,0,7-2l12.94-5.93Z"/><path d="M395.36,711.86,421.27,707l-14-74.76,10.37-1.94,14,74.76,25.92-4.85,1.7,9.1L397.06,721Z"/><path d="M313.32,719.15l3.13-57.69a32.23,32.23,0,0,1,2.8-11.05,28,28,0,0,1,6.24-8.78,27.15,27.15,0,0,1,20.42-7.27,28.13,28.13,0,0,1,11.17,2.86,26,26,0,0,1,8.37,6.61,28.55,28.55,0,0,1,5.16,9.44,31.47,31.47,0,0,1,1.48,11.32l-3.37,57.68-10.3-.58,3-57.7a24.93,24.93,0,0,0-.79-7.38,19.69,19.69,0,0,0-2.92-6.38,16.14,16.14,0,0,0-5.08-4.63,16.06,16.06,0,0,0-20.19,3.18,19.35,19.35,0,0,0-3.6,6,26.65,26.65,0,0,0-1.64,7.25l-3.43,57.67Z"/><path d="M253.65,615.55l10.52,3.25L277,689.49l19-60.85,10.47,3.24-25.21,81.5-10.53-3.25-12.82-70.58-19,60.74-10.47-3.24Z"/><path d="M197,682.68,152.9,656l4.89-8.07,17.49,10.59,34.44-56.89L192.22,591l4.86-8,44.11,26.7-4.86,8-17.09-10.35L184.8,664.26l17.1,10.35Z"/><path d="M90.27,586.3,108.89,605l53.84-53.71,7.45,7.47-53.84,53.71L135,631.1l-6.55,6.53-44.7-44.8Z"/><path d="M65.58,568.46,39,524.29l8.08-4.87,10.54,17.52,57-34.3L104,485.12l8-4.83,26.59,44.18-8,4.83-10.31-17.12-57,34.3,10.3,17.12Z"/><path d="M54.23,432.7l10.44,34.06,28.91-8.86L81.4,418.18l8.8-2.7,15.35,50.09L24,490.57,8.79,441l8.85-2.71,12,39.21,26.22-8L45.43,435.4Z"/><path d="M63.92,357.88A11.67,11.67,0,0,0,57.41,360a16,16,0,0,0-4.29,4.84,29.89,29.89,0,0,0-2.74,6.34c-.7,2.28-1.32,4.48-1.87,6.58q-1.23,4.59-3,9.35a40.14,40.14,0,0,1-4.57,8.75,25.4,25.4,0,0,1-6.72,6.64,18.2,18.2,0,0,1-9.43,2.94,19.76,19.76,0,0,1-10-1.89,23.64,23.64,0,0,1-7.66-6,28.51,28.51,0,0,1-5-8.65A33.5,33.5,0,0,1,.05,379a31.7,31.7,0,0,1,1.26-10.81A29.82,29.82,0,0,1,6,358.83,25.45,25.45,0,0,1,13.73,352a24.26,24.26,0,0,1,10.46-3.09l.59,11.12a23.7,23.7,0,0,0-6.6,2.17,16.61,16.61,0,0,0-5,3.85,15.68,15.68,0,0,0-3.08,5.48,18.89,18.89,0,0,0-.83,7,21.19,21.19,0,0,0,1.21,6,16.37,16.37,0,0,0,2.91,5.13,13.46,13.46,0,0,0,4.53,3.45,12.57,12.57,0,0,0,6,1.05A10.76,10.76,0,0,0,30.11,392a16,16,0,0,0,4.06-4.82,31.48,31.48,0,0,0,2.6-6.18q1-3.32,1.72-6.23.82-3.21,1.9-6.5A53.49,53.49,0,0,1,43,361.88a39.43,39.43,0,0,1,3.38-5.75,25.28,25.28,0,0,1,4.41-4.76,20.67,20.67,0,0,1,12.45-4.78,19.29,19.29,0,0,1,10.14,2,22.84,22.84,0,0,1,7.46,6.2,29.7,29.7,0,0,1,4.77,8.9,37.28,37.28,0,0,1,2,10.1A36,36,0,0,1,86.39,385a31.91,31.91,0,0,1-4.53,10,26.57,26.57,0,0,1-7.7,7.42,23,23,0,0,1-10.7,3.45l-.6-11a20.81,20.81,0,0,0,6.94-2.55,17.19,17.19,0,0,0,5-4.49,17.78,17.78,0,0,0,2.9-6.11,23.77,23.77,0,0,0,.68-7.41,25.1,25.1,0,0,0-1.12-6.18,17.09,17.09,0,0,0-2.75-5.34,13.68,13.68,0,0,0-4.43-3.7A11.6,11.6,0,0,0,63.92,357.88Z"/><ellipse cx="312.27" cy="286.06" rx="25.19" ry="63.95"/><ellipse cx="409.54" cy="285.67" rx="25.19" ry="63.95"/><path d="M356.61,505.91c-1.26,0-2.52,0-3.8,0-53.18-1-94.7-28.39-120.07-79.14C213.86,389,210.63,352.06,210.5,350.5a6,6,0,0,1,12-1c0,.51,3.27,36.52,21.17,72.16,23.59,47,60.4,71.26,109.41,72.21,56.39,1.07,98.32-22.74,124.77-70.81C497.76,386.81,501,349.89,501,349.53a6,6,0,0,1,12,1c-.13,1.61-3.44,39.88-24.62,78.37C468.88,464.19,430.3,505.91,356.61,505.91Z"/><path d="M521.61,356.61h-.4l-29.66-1.93a6,6,0,0,1,.78-12L522,344.62a6,6,0,0,1-.38,12Z"/><path d="M201.85,357a6,6,0,0,1-.54-12l29.59-2.72a6,6,0,1,1,1.1,11.95L202.4,357A5.06,5.06,0,0,1,201.85,357Z"/></g></g></svg>